<?xml version="1.0" encoding="UTF-8" standalone="no"?>
<!-- Created with Inkscape (http://www.inkscape.org/) -->

<svg
   xmlns:dc="http://purl.org/dc/elements/1.1/"
   xmlns:cc="http://creativecommons.org/ns#"
   xmlns:rdf="http://www.w3.org/1999/02/22-rdf-syntax-ns#"
   xmlns:svg="http://www.w3.org/2000/svg"
   xmlns="http://www.w3.org/2000/svg"
   xmlns:sodipodi="http://sodipodi.sourceforge.net/DTD/sodipodi-0.dtd"
   xmlns:inkscape="http://www.inkscape.org/namespaces/inkscape"
   version="1.1"
   id="svg2"
   xml:space="preserve"
   width="888"
   height="336"
   viewBox="0 0 888 336"
   sodipodi:docname="kdz-new-logo.svg"
   inkscape:version="0.92.3 (2405546, 2018-03-11)"><metadata
     id="metadata8"><rdf:RDF><cc:Work
         rdf:about=""><dc:format>image/svg+xml</dc:format><dc:type
           rdf:resource="http://purl.org/dc/dcmitype/StillImage" /><dc:title></dc:title></cc:Work></rdf:RDF></metadata><defs
     id="defs6"><clipPath
       clipPathUnits="userSpaceOnUse"
       id="clipPath22"><path
         d="m 203.65039,227.12891 c 0,0 -3.54492,3.32812 -10.13867,3.07617 -6.5957,-0.25391 -11.03906,-1.01367 -13.54981,-0.25391 -2.51269,0.75977 -5.69824,2.78711 -9.78027,1.52051 -4.08398,-1.2666 -9.15332,-2.31543 -11.66601,-2.31543 -2.51368,0 -12.00098,-1.0791 -16.10694,-2.02734 -4.87988,-1.12696 -14.08252,-5.38868 -14.08252,-5.38868 0,0 19.45508,6.35352 24.70899,2.4004 2,-1.50782 -6.03516,-2.84766 -7.6045,-3.10157 -1.5708,-0.25293 -3.48291,-6.13281 -7.61035,-9.42383 -4.12842,-3.29296 -15.60107,1.40821 -19.99707,1.66211 -4.39746,0.25391 16.24268,-9.95703 21.58203,-8.40039 5.33838,1.55469 12.32129,13.34961 18.167,7.74414 3.29296,-3.15429 0.29492,-6.4707 -4.10254,-6.97851 -4.39649,-0.50586 -6.84473,-4.59961 -14.38135,-11.98047 -7.53809,-7.38086 -16.91553,-9.26172 -21.93945,-8.75586 -5.02588,0.50684 15.4331,-4.63086 18.93408,-2.0625 3.49902,2.56934 14.87402,12.67188 20.81543,12.17188 6.2666,-0.5293 9.24219,-4.67383 4.75781,-9.09571 -7.06641,-6.96777 -18.08008,-2.88672 -18.08008,-2.88672 0,0 1.05518,-4.05664 8.61328,-4.74804 12.57032,-1.14844 8.91309,-3.67969 4.44141,-5.86133 -6.88574,-3.35938 -25.4751,-0.76758 -30.30078,-8.85449 l -3.79785,-6.50098 c 0,0 9.73291,7.75 15.43261,8.25781 5.69678,0.50586 6.38672,-3.74121 4.20166,-6.78613 -4.17431,-5.82031 -27.84423,-4.42188 -27.84423,-4.42188 0,0 14.93457,-9.0957 28.08642,-2.82226 13.77197,6.56738 17.14795,10.57129 19.87451,7.63183 3.46875,-3.73632 -3.09472,-6.875 -5.96679,-6.875 -2.8711,0 -13.54834,-2.7832 -17.04834,-8.39257 -3.5,-5.60743 -13.59473,-10.67383 -24.31787,-9.91309 0,0 18.61914,-2.82227 25.88818,1.01172 7.26904,3.83496 14.78467,3.70801 15.79248,0.50879 1.09766,-3.48242 -0.35938,-5.10352 -3.5,-6.87598 -3.14063,-1.77246 -11.23242,-8.52344 -19.24658,-7.63574 -18.99024,2.11035 -37.23926,-12.44336 -37.23926,-12.44336 0,0 22.74805,8.35742 34.72656,5.31738 11.97901,-3.03808 31.56006,0.28907 41.02588,6.40332 9.46777,6.11133 22.72949,7.5625 26.49805,9.11914 3.76855,1.55567 4.75488,1.55567 5.38379,5.10059 0.6289,3.54687 1.25586,6.36914 0.3125,8.64746 -0.94141,2.28027 -0.94141,3.33008 -0.62696,5.35449 0.31446,2.02539 1.25684,3.00391 0.94336,4.81348 -0.3164,1.80566 -1.57031,4.08691 -1.57031,5.85937 0,1.77247 0,5.3545 0,5.3545 l 26.15625,-29.52344 c 0,0 27.77149,15.0166 46.07715,13.49609 l -42.26367,39.69141 40.06543,41.20996 h -51.41797 l -18.61719,-25.94141 c 0,0 1.25391,5.60743 0.94141,8.13965 -0.31446,2.53418 0.3125,4.59571 0.94238,6.6211 0.62793,2.02636 0.62695,5.8623 0.31348,6.62207 -0.31348,0.75879 -1.88477,2.53125 -1.88477,2.53125 z"
         id="path20"
         inkscape:connector-curvature="0" /></clipPath><clipPath
       clipPathUnits="userSpaceOnUse"
       id="clipPath204"><path
         d="m 390.41504,158.04102 c -4.0332,-2.84473 -7.61133,-4.17774 -8.88086,-4.60938 -3.4668,-1.17871 -5.46387,-1.29004 -9.7334,-3.22656 -2.19824,-0.99903 -2.6289,-1.31055 -3.12793,-1.4375 -0.47265,-0.12012 -1.00488,-0.0752 -3.13574,-0.28516 -4.39844,-0.42871 -5.60547,0.64551 -9.2002,-0.21387 -3.59668,-0.86035 -11.60156,-0.64746 -15.07031,-1.29199 -3.46875,-0.64355 -12.79687,1.29199 -18.13281,2.15137 -5.33691,0.8623 -16.53223,-0.21289 -19.73535,-0.85938 -3.20117,-0.64746 -7.86524,0.64649 -7.86524,0.64649 0,0 -11.10547,0.18848 -15.46484,2.58105 -9.41016,5.16504 -38.18164,-4.26464 -38.18164,-4.26464 6.07617,4.89648 14.60644,8.68945 22.46094,10.7998 l 126.06738,0.01 v 0 z"
         id="path202"
         inkscape:connector-curvature="0"
         style="clip-rule:evenodd" /></clipPath><clipPath
       clipPathUnits="userSpaceOnUse"
       id="clipPath230"><path
         d="m 264.34766,158.04102 c 6.30468,1.68554 12.17382,2.29492 15.98828,1.5205 3.73047,-0.75879 13.86426,1.07422 15.46484,1.292 1.60059,0.21386 6.13672,0.53125 6.79688,1.82324 0.66308,1.29101 -7.4043,1.38965 -10.4668,0.96094 -3.06348,-0.43067 -5.87109,1.99121 -9.4668,3.06738 -3.59765,1.07617 -12.59668,-1.87598 -12.59668,-1.87598 0,0 4.80274,2.25488 7.06543,4.18945 2.26367,1.9375 9.92774,1.18262 18.32617,1.61329 8.4004,0.43066 3.2754,4.41113 -0.99218,5.27246 -4.27051,0.85937 -8.13282,-1.72071 -16.26563,-1.50586 -8.13379,0.21679 -12.13476,8.27929 -13.20312,8.71094 -1.87891,0.75781 8.69336,-3.25586 12.16211,-4.33204 3.46875,-1.07519 11.98828,2.67383 11.04101,5.7793 -3.18554,10.45117 -12.40234,1.02149 -18.66699,0.80664 -6.26465,-0.21484 -26.54297,2.58301 -26.54297,2.58301 7.59863,-0.64551 30.81152,4.83691 34.40918,6.55762 3.59766,1.7207 14.26953,-1.50586 19.2002,-2.15039 4.93066,-0.64551 5.60254,2.36523 4.00293,4.94726 -1.60157,2.58203 -10.80274,2.25586 -18.9336,3.54688 C 273.53711,202.1377 269,213.21484 269,213.21484 c 2.40234,-2.90039 9.08887,-5.95312 14.28711,-7.45996 5.19727,-1.50488 13.69727,4.40821 12.62891,7.63379 -1.06641,3.22852 1.33496,4.59571 -9.46485,4.81153 -8.69336,0.17285 -11.80273,-2.68262 -12.68457,-3.80372 1.19629,1.75586 5.69824,8.12891 7.76856,7.75782 2.40234,-0.43164 11.86328,0.30468 13.46484,1.16406 1.60059,0.86133 1.33398,2.58203 0.2666,3.875 -1.0664,1.28906 -5.93066,-1.31445 -8.66601,-0.43164 -2.66895,0.86035 -6.26465,-0.64649 -6.26465,-0.64649 0,0 3.86328,2.58399 6.79785,3.65918 2.93555,1.07618 12.13574,1.17872 16.7998,1.39356 4.66407,0.21484 6.13575,-0.42969 8.66602,-0.42969 2.5293,0 5.33594,-0.64551 6.40332,0.21485 1.06641,0.86132 7.59961,1.07617 11.59961,1.07617 4.00391,0 8.66894,-0.86133 13.86621,-0.86133 5.19727,0 9.46582,-1.0752 12.40039,-0.21484 2.93555,0.86132 7.06738,-0.86036 13.59863,-2.25391 6.53125,-1.39453 8.40039,-2.79883 8.40039,-2.79883 0,0 26.93653,-2.15039 26.93653,-36.44824 0,-17.06055 -8.37989,-26.5 -15.38965,-31.4209 l -126.06738,0.01 v 0 m 76.91894,45.26562 V 173.2014 c 0,0 28.40039,-2.58203 28.40039,15.26953 0,17.84961 -28.40039,14.83594 -28.40039,14.83594 z"
         id="path228"
         inkscape:connector-curvature="0"
         style="clip-rule:evenodd" /></clipPath><clipPath
       clipPathUnits="userSpaceOnUse"
       id="clipPath346"><path
         d="m 521.71875,230.29785 c 0,0 -8.7793,0.91113 -14.38086,1.19238 -5.60254,0.28418 -17.88184,-1.1289 -20.33398,-0.8457 -2.45215,0.28125 -6.6543,2.54102 -11.91895,1.97656 -5.26367,-0.56445 -11.92969,-0.55468 -16.48144,-2.25976 -4.55372,-1.70313 -13.33106,-2.55078 -15.43262,-1.70313 -2.10059,0.84668 -11.20606,3.40821 -15.77051,2.26758 -4.56348,-1.13867 -11.56641,-1.97558 -18.23242,-7.35058 0,0 17.72266,1.458 19.9834,-1.4209 5.49023,-6.9961 -10.5293,-6.4961 -14.38086,-5.36621 -3.85156,1.12988 -10.16602,4.52734 -12.26758,6.22168 0,0 5.26367,-12.44532 16.83105,-13.57422 11.56836,-1.12891 14.72168,-1.1377 11.56836,-3.96289 -3.14941,-2.82227 -14.71875,-3.95313 -14.71875,-3.95313 0,0 -26.69433,0.54688 -28.09668,-0.0186 -1.40136,-0.56446 29.14161,-4.21973 33.35743,-5.35059 4.21484,-1.12988 15.42285,1.12402 18.22363,1.9707 2.80273,0.84766 6.66699,1.41211 9.81738,0 3.15332,-1.41113 4.91602,-1.1289 8.76758,0 3.85156,1.12989 7.01465,2.25977 6.66602,-0.28222 -0.35157,-2.54199 -8.07911,-5.36621 -11.57911,-5.36621 -3.50195,0 -15.78125,-0.29102 -21.03515,-3.96192 0,0 8.41504,2.25977 8.76562,0.56348 0.35157,-1.69336 -5.53027,-5.40332 -8.33105,-5.69531 -2.80176,-0.29102 -17.79102,2.9248 -23.05567,-3.57813 0,0 11.05274,1.64063 13.15332,0.22852 2.10254,-1.41211 3.86426,-3.9541 6.66504,-3.38867 2.80274,0.56347 4.90235,0.83789 4.20118,-1.42188 -0.69922,-2.25977 -4.88868,-5.36523 -7.70118,-5.64844 -2.81445,-0.28222 -11.71972,-0.47265 -16.79394,-3.88672 0,0 12.1875,0.11133 13.58887,-2.43164 1.40136,-2.53906 -2.42383,-5.84375 -9.07715,-4.71191 -6.65332,1.12988 -11.22852,2.27246 -20.69532,-0.55078 -9.46679,-2.82617 -27.31445,7.05469 -27.31445,7.05469 0,0 18.89942,-14.40528 25.56348,-13.84278 6.66699,0.56543 10.56347,2.28125 13.71484,1.14453 3.15137,-1.14062 3.46777,-1.72558 9.08203,-1.1582 5.61524,0.56348 9.81641,2.82422 9.11719,-1.12891 -0.7002,-3.9541 -12.95801,-4.2373 -15.07129,-3.39062 0,0 10.85742,-5.65723 15.07129,-4.80762 4.21289,0.84375 16.84473,4.2334 21.39648,1.97363 4.55274,-2.25781 15.08106,-1.97363 19.63282,-1.97363 4.55273,0 13.66894,-1.9873 15.77148,-4.24609 2.10059,-2.26172 11.58008,-7.06153 13.67969,-6.21387 2.10254,0.84766 8.7666,1.68457 12.26855,-0.85644 3.50293,-2.54004 0.71192,-3.10743 7.01563,-5.08497 6.30273,-1.9746 14.03027,-0.85546 18.58301,-2.833 4.55273,-1.97657 19.98535,-10.59766 19.98535,-10.59766 0,0 -27.7002,32.08887 -27.35156,48.48535 l -44.88086,10.46875 43.48046,32.51367 -1.0498,26.80176 v 0 z"
         id="path344"
         inkscape:connector-curvature="0" /></clipPath></defs><sodipodi:namedview
     pagecolor="#ffffff"
     bordercolor="#666666"
     borderopacity="1"
     objecttolerance="10"
     gridtolerance="10"
     guidetolerance="10"
     inkscape:pageopacity="0"
     inkscape:pageshadow="2"
     inkscape:window-width="2087"
     inkscape:window-height="943"
     id="namedview4"
     showgrid="false"
     inkscape:zoom="1.2390294"
     inkscape:cx="475.11335"
     inkscape:cy="250.023"
     inkscape:window-x="211"
     inkscape:window-y="129"
     inkscape:window-maximized="0"
     inkscape:current-layer="g10" /><g
     id="g10"
     inkscape:groupmode="layer"
     inkscape:label="KDZ NEW LOGO 2"
     transform="matrix(1.3333333,0,0,-1.3333333,0,336)"><path
       d="m 362.56641,188.4707 c 0,6.9668 -7.56153,8.91211 -14.19825,9.26075 v -18.83692 c 6.62989,0.4707 14.19825,2.5625 14.19825,9.57617 v 0 m 61.21386,1.65821 c -1.60254,0.0439 -3.18066,0.21484 -4.57617,0.58789 -0.66015,0.17773 -2.96972,0.55175 -6.33887,1.05078 0.0274,-0.75586 0.0391,-1.52735 0.0391,-2.31543 l -0.007,-0.94922 c 3.28516,0.9043 6.60352,1.11816 9.1543,1.14258 l 1.03613,-9.8e-4 0.69238,0.48438 v 0 m -4.38672,-15.39258 c -1.12304,0.15234 -2.20214,0.0889 -3.24414,0.008 -0.958,-0.0723 -3.18066,-0.35937 -5.66796,-0.70117 -0.15528,-0.45899 -0.31934,-0.9082 -0.48731,-1.35352 2.50293,0.88477 5.01172,1.40039 7.08594,1.73047 0.79394,0.125 1.56836,0.23047 2.31347,0.31641 v 0 m -136.95117,37.50683 c 0.92481,-0.35644 1.875,-0.68652 2.81543,-0.97168 0.60742,0.14844 1.33399,0.4043 2.27442,1.00782 l 0.23828,0.1582 -1.4961,0.0391 c -1.64355,0.0322 -2.8955,-0.0762 -3.83203,-0.2334 v 0 M 260.1444,178.81761 c -0.75976,0.45215 -1.42383,0.96582 -1.98242,1.51856 -1.78906,0.18164 -3.58008,0.37793 -5.25,0.56836 l -3.14551,0.37402 14.73828,-13.64941 0.085,1.25195 1.90625,0.89453 c 0.0684,0.0322 0.96094,0.45899 2.05664,1.04688 l 0.37305,0.19921 c -2.35156,1.23438 -4.15625,2.74415 -5.44726,4.00196 -1.28125,1.25 -2.3086,2.50293 -3.08594,3.48144 l -0.24805,0.3125 v 0 m 11.75195,19.95996 c -2.60351,1.89454 -4.48437,4.13672 -5.72168,5.82227 -1.26562,1.72363 -2.23339,3.39844 -2.88183,4.64453 l -15.14844,-15.38965 c 7.14453,0.82227 18.94141,3.48926 23.75195,4.92285 v 0 m -140.92871,17.64844 c 1.02344,-0.16894 1.81153,-0.24609 2.38916,-0.25 0.37159,0.35645 0.73731,0.77344 1.10791,1.25098 -1.68213,-0.44824 -2.96777,-0.82715 -3.47412,-0.99317 l -0.023,-0.008 v 0 m 152.94629,18.45508 0.28223,0.10547 c 1.68457,0.61719 3.63769,0.91504 5.08398,1.08984 1.51172,0.18555 3.27637,0.32422 5.09864,0.42969 3.28515,0.18945 6.79101,0.27148 9.14843,0.37891 4.88086,0.22461 6.42383,-0.42188 9.07227,-0.42188 1.40234,0 2.90234,-0.16601 4.18066,-0.22461 -0.25488,0.1875 0.97266,0.59375 2.44825,0.84766 1.05859,0.18164 2.39453,0.32812 3.84961,0.43164 2.47265,0.17578 5.34375,0.2373 7.52441,0.2373 4.00391,0 8.66894,-0.86035 13.86621,-0.86035 2.84766,0 5.44434,-0.2793 7.72852,-0.45605 0.94726,-0.0752 1.5957,-0.0986 2.04101,-0.0908 3.78711,1.11035 7.74707,0.34179 9.9834,-0.16016 2.19434,-0.49219 4.8291,-1.26367 8.0625,-1.95508 3.66797,-0.78222 6.24609,-1.61426 8.04395,-2.34863 0.48242,-0.19824 0.90136,-0.38379 1.25976,-0.55566 0.71875,-0.12598 1.61719,-0.30665 2.65137,-0.57227 2.45117,-0.62598 5.67676,-1.71484 9.08984,-3.59277 0.0899,1.24218 3.74024,6.26074 3.74024,6.26074 l 8.44921,-4.74805 c 3.69629,2.69727 7.46192,4.3584 10.90235,5.47461 3.36816,1.09277 6.44629,1.63867 8.88086,2.24707 6.99316,1.74414 17.38965,-1.29785 20.47461,-2.40332 l 0.54394,0.0225 c 0.68946,0.0361 1.64649,0.10156 2.73047,0.21387 2.22656,0.23242 4.75098,0.64844 6.56348,1.32422 3.33594,1.24902 7.06836,1.75195 10.1123,2.04883 2.86524,0.27734 5.81836,0.41406 8.42188,0.69238 4.13183,0.44336 7.66211,-0.24902 10.15039,-0.90137 1.09668,-0.28808 2.09863,-0.60351 2.99121,-0.86719 0.37012,-0.10937 0.61523,-0.1748 0.77734,-0.21484 0.48828,0.009 1.20215,0.0586 1.87012,0.0967 1.55078,0.0859 3.44727,0.22461 5.44238,0.36426 4.45508,0.30664 9.33985,0.58691 12.40039,0.43164 5.76953,-0.29102 20.84375,-1.84766 20.84375,-1.84766 l 1.34375,-34.28711 -36.6455,-27.40039 38.03906,-8.87207 -0.0928,-4.37988 c -0.14453,-6.83203 5.99903,-17.8125 12.66114,-27.52832 6.5459,-9.5459 13.18457,-17.32129 13.41797,-17.59082 l 22.55566,-26.12988 -10.8125,6.05175 c -0.11426,0.06543 -36.62598,20.49903 -40.92187,22.36426 -0.19336,0.085 -0.69141,0.24707 -1.78028,0.39844 -1.26465,0.17773 -2.63867,0.25976 -4.05957,0.35254 -1.80371,0.12011 -3.66601,0.23828 -5.50976,0.46191 -1.9961,0.24317 -4.21289,0.625 -6.44043,1.32617 -3.49121,1.09473 -6.26856,2.30762 -8.06446,4.70899 -0.26562,0.35449 -0.44336,0.72656 -0.77343,1.16992 -0.0381,0.0371 -0.14844,0.13574 -0.3545,0.28516 -0.33496,0.24414 -3.39843,0.37207 -4.34179,-0.01 -2.22754,-0.89551 -4.37598,-0.72266 -5.30469,-0.61426 -1.09473,0.12989 -2.16113,0.38965 -3.08301,0.66699 -1.54687,0.46583 -3.39551,1.20215 -5.23535,2.08008 -2.88184,1.36719 -6.70313,3.5166 -8.7207,5.57325 -0.20118,0.0908 -0.46289,0.19335 -0.77246,0.30371 -0.74414,0.26171 -1.72559,0.55468 -2.8125,0.82714 -2.28809,0.57422 -4.85645,1.01758 -6.69922,1.01758 -2.38965,0 -6.34961,-0.0684 -10.30957,0.15528 -3.6084,0.20214 -8.7627,0.69238 -12.64063,2.47851 -0.41113,0.0547 -0.94238,0.1084 -1.29101,0.10645 -1.49317,-0.01 -3.17676,-0.21485 -4.8545,-0.48047 -4.1123,-0.65137 -8.17968,-1.68262 -10.21582,-2.09082 -3.10058,-0.62305 -6.20898,0.0381 -7.99316,0.49121 -1.94238,0.49902 -4.06543,1.24512 -6.01758,2.0332 -3.60937,1.45703 -8.50976,4.01367 -8.50976,4.01367 l -1.80274,2.70899 c 0,0 1.02735,1.37305 0.2666,1.25097 -2.37695,-0.38671 -5.2334,-0.98632 -8.83398,-1.29394 -3.52735,-0.29688 -7.0332,0.82324 -9.75684,2.01269 -1.01465,-0.29589 -1.94922,-0.5371 -2.92676,-0.81347 -1.14941,-0.3291 -2.37597,-0.73145 -4.0498,-1.49024 -0.99219,-0.45019 -1.58398,-0.74414 -1.98437,-0.94336 -1.03907,-0.50976 -1.73145,-0.7705 -2.49219,-0.96582 -0.71778,-0.18066 -1.42481,-0.2832 -2.50586,-0.35449 -0.39844,-0.0254 -0.97949,-0.0605 -1.90723,-0.15137 -1.55469,-0.15234 -2.82715,-0.16894 -3.94238,-0.13183 -0.94629,0.0352 -1.75684,0.1084 -2.53906,0.1748 -0.85547,0.0684 -1.0127,0.0674 -1.55469,-0.0635 -1.23926,-0.29492 -2.85449,-0.52442 -4.66211,-0.68067 -1.41406,-0.11816 -2.97363,-0.19824 -4.53027,-0.27246 -1.38575,-0.0644 -2.77149,-0.12109 -4.01465,-0.20019 -0.8916,-0.0615 -1.6875,-0.11621 -2.28418,-0.22657 -2.0166,-0.375 -4.1836,-0.29687 -5.77637,-0.17968 -1.64258,0.11621 -3.52539,0.34765 -5.47559,0.64062 -3.4707,0.5127 -7.17578,1.21973 -9.87207,1.6543 -3.85546,0.62207 -13.87109,-0.2461 -16.61914,-0.80176 -3.15429,-0.63379 -6.38086,-0.26758 -8.1914,0.0127 -2.11426,0.32714 -4.11133,0.88769 -4.11133,0.88769 l -0.36328,0.14063 c -0.39844,0.15527 -2.13574,0.76757 -4.1582,1.33886 l 4.26269,-4.00293 -17.71484,1.46973 c -7.39453,0.61426 -17.46192,-2.29199 -26.1084,-5.64648 -8.48047,-3.28711 -15.03418,-6.77149 -15.28906,-6.90723 l -5.72461,-3.09766 -16.79786,18.95899 c 0.0635,-0.29883 0.19141,-0.63965 0.4043,-1.15528 0.88867,-2.15234 0.92481,-4.27929 0.78028,-6.04003 -0.12793,-1.56055 -0.45899,-3.29688 -0.80079,-5.22754 -0.35156,-1.97852 -0.99414,-4.51172 -3.54101,-6.54981 -1.12598,-0.90039 -2.33203,-1.46875 -3.16797,-1.83008 -0.66602,-0.28906 -1.47461,-0.60058 -2.46973,-1.00976 -0.72461,-0.29981 -1.66894,-0.61231 -2.81054,-0.91895 -0.82129,-0.22461 -1.77832,-0.45605 -2.84082,-0.7041 -1.85352,-0.43457 -4.07715,-0.93262 -6.47266,-1.56934 -4.67578,-1.24023 -9.41602,-2.87695 -13.16992,-5.29882 -11.21875,-7.24805 -33.24463,-11.03711 -47.59571,-7.39258 -4.14306,1.04785 -11.12695,0.0342 -17.708,-1.54981 -6.35205,-1.52832 -11.59278,-3.39062 -11.94336,-3.51953 L 63.5752,89.86816 c 0,0 14.35156,11.50977 19.625,15.69922 5.20361,4.13379 10.86767,8.60157 12.08251,9.40918 2.20997,1.46485 5.37549,3.39258 9.1919,5.25196 7.45019,3.625 18.49023,7.5205 30.37793,6.2041 1.37549,-0.15625 3.55273,0.33301 6.60254,1.93945 0.43359,0.22461 0.85693,0.45898 1.26758,0.69727 -5.67969,-2.16895 -13.14063,-2.167 -17.91162,-1.97364 -6.08399,0.2461 -12.55665,1.74024 -12.55665,1.74024 l -8.24951,5.3457 11.08838,5.01465 c 7.43897,-1.09277 11.68115,1.81055 15.02344,4.22168 -3.33984,0.19433 -6.40869,0.80566 -8.98926,1.51953 -0.93945,0.26172 -1.83642,0.54102 -2.68359,0.83008 l -10.78955,-3.95508 2.62646,7.7168 c -4.63183,2.72363 -16.95947,12.24414 -16.95947,12.24414 l 21.51953,-1.94727 c 0.25537,-0.0137 0.74902,-0.0351 1.42285,-0.0547 l 3.65528,6.25879 c 4.18017,7.00489 13.83154,8.64649 19.67529,9.39453 0.67822,0.0869 1.35937,0.167 2.04004,0.24122 -0.70948,0.45703 -1.3418,0.94726 -1.90088,1.45703 -0.19141,0.17285 -0.36963,0.34765 -0.53858,0.51953 -1.54492,-0.70801 -3.09716,-0.9707 -4.08984,-1.08887 -1.30176,-0.15723 -2.87207,-0.19824 -4.5874,-0.11523 -2.68653,0.12988 -5.83154,0.55957 -8.66846,1.0791 -2.81689,0.51367 -5.49756,0.83984 -6.77392,1.53711 -19.32081,10.52636 -12.28711,10.85254 2.9541,11.5332 2.41845,0.10742 9.44922,0.71289 15.57861,6.71484 0.66016,0.64747 1.2832,1.26758 1.87061,1.86524 -1.38965,0.18359 -2.97266,0.52148 -4.64991,0.99219 -2.95752,0.83007 -6.28857,2.08984 -9.27099,3.40429 -2.81739,1.24219 -5.74463,2.44336 -7.38574,3.80664 -12.59961,10.45704 -13.41065,11.76465 4.15625,11.61719 0.88281,-0.008 1.94238,-0.19336 3.13232,-0.42773 0.84961,-0.16797 1.79346,-0.38575 2.79932,-0.62793 1.23242,-0.29785 2.57763,-0.64063 3.94824,-0.95215 l -9.25977,4.2041 c 0,0 8.27051,6.64746 11.34375,7.9209 2.87744,1.19238 6.96826,2.79101 10.16211,3.5293 4.64746,1.07226 14.7959,2.24609 18.06153,2.24609 1.15039,0 5.20996,0.72266 9.11621,1.93457 4.04882,1.25488 7.65332,0.80371 10.30859,0.0781 1.69824,-0.46386 3.19824,-1.18261 4.51465,-1.58105 0.44531,-0.0127 1.19922,0.0371 2.25586,0.0977 2.29101,0.1289 5.10254,0.38476 8.46191,0.51367 4.91406,0.18847 8.79004,-0.9668 11.44629,-2.20899 1.31348,-0.61523 2.33399,-1.2539 3.05762,-1.76562 0.44824,-0.31738 0.82324,-0.625 1.08594,-0.85352 0.28418,-0.24804 0.48339,-0.44922 0.48339,-0.44922 0,0 0.66016,-0.72656 1.18946,-1.38769 0.58789,-0.73145 1.24609,-1.6709 1.6416,-2.43848 l 5.78515,8.06055 h 34.89258 l 0.28418,3.88769 6.56153,-3.88769 h 24.31347 v 0 z"
       style="fill:#231f20;fill-opacity:1;fill-rule:nonzero;stroke:none"
       id="path12"
       inkscape:connector-curvature="0" /><path
       d="m 203.65039,227.12891 c 0,0 -3.54492,3.32812 -10.13867,3.07617 -6.5957,-0.25391 -11.03906,-1.01367 -13.54981,-0.25391 -2.51269,0.75977 -5.69824,2.78711 -9.78027,1.52051 -4.08398,-1.2666 -9.15332,-2.31543 -11.66601,-2.31543 -2.51368,0 -12.00098,-1.0791 -16.10694,-2.02734 -4.87988,-1.12696 -14.08252,-5.38868 -14.08252,-5.38868 0,0 19.45508,6.35352 24.70899,2.4004 2,-1.50782 -6.03516,-2.84766 -7.6045,-3.10157 -1.5708,-0.25293 -3.48291,-6.13281 -7.61035,-9.42383 -4.12842,-3.29296 -15.60107,1.40821 -19.99707,1.66211 -4.39746,0.25391 16.24268,-9.95703 21.58203,-8.40039 5.33838,1.55469 12.32129,13.34961 18.167,7.74414 3.29296,-3.15429 0.29492,-6.4707 -4.10254,-6.97851 -4.39649,-0.50586 -6.84473,-4.59961 -14.38135,-11.98047 -7.53809,-7.38086 -16.91553,-9.26172 -21.93945,-8.75586 -5.02588,0.50684 15.4331,-4.63086 18.93408,-2.0625 3.49902,2.56934 14.87402,12.67188 20.81543,12.17188 6.2666,-0.5293 9.24219,-4.67383 4.75781,-9.09571 -7.06641,-6.96777 -18.08008,-2.88672 -18.08008,-2.88672 0,0 1.05518,-4.05664 8.61328,-4.74804 12.57032,-1.14844 8.91309,-3.67969 4.44141,-5.86133 -6.88574,-3.35938 -25.4751,-0.76758 -30.30078,-8.85449 l -3.79785,-6.50098 c 0,0 9.73291,7.75 15.43261,8.25781 5.69678,0.50586 6.38672,-3.74121 4.20166,-6.78613 -4.17431,-5.82031 -27.84423,-4.42188 -27.84423,-4.42188 0,0 14.93457,-9.0957 28.08642,-2.82226 13.77197,6.56738 17.14795,10.57129 19.87451,7.63183 3.46875,-3.73632 -3.09472,-6.875 -5.96679,-6.875 -2.8711,0 -13.54834,-2.7832 -17.04834,-8.39257 -3.5,-5.60743 -13.59473,-10.67383 -24.31787,-9.91309 0,0 18.61914,-2.82227 25.88818,1.01172 7.26904,3.83496 14.78467,3.70801 15.79248,0.50879 1.09766,-3.48242 -0.35938,-5.10352 -3.5,-6.87598 -3.14063,-1.77246 -11.23242,-8.52344 -19.24658,-7.63574 -18.99024,2.11035 -37.23926,-12.44336 -37.23926,-12.44336 0,0 22.74805,8.35742 34.72656,5.31738 11.97901,-3.03808 31.56006,0.28907 41.02588,6.40332 9.46777,6.11133 22.72949,7.5625 26.49805,9.11914 3.76855,1.55567 4.75488,1.55567 5.38379,5.10059 0.6289,3.54687 1.25586,6.36914 0.3125,8.64746 -0.94141,2.28027 -0.94141,3.33008 -0.62696,5.35449 0.31446,2.02539 1.25684,3.00391 0.94336,4.81348 -0.3164,1.80566 -1.57031,4.08691 -1.57031,5.85937 0,1.77247 0,5.3545 0,5.3545 l 26.15625,-29.52344 c 0,0 27.77149,15.0166 46.07715,13.49609 l -42.26367,39.69141 40.06543,41.20996 h -51.41797 l -18.61719,-25.94141 c 0,0 1.25391,5.60743 0.94141,8.13965 -0.31446,2.53418 0.3125,4.59571 0.94238,6.6211 0.62793,2.02636 0.62695,5.8623 0.31348,6.62207 -0.31348,0.75879 -1.88477,2.53125 -1.88477,2.53125 z"
       style="fill:#eb222c;fill-opacity:1;fill-rule:nonzero;stroke:none"
       id="path14"
       inkscape:connector-curvature="0" /><g
       id="g16"><g
         id="g18"
         clip-path="url(#clipPath22)"><path
           d="m 96.64746,230.77637 h 179.03027 v 1.40527 H 96.64746 Z"
           style="fill:#eb222c;fill-opacity:1;fill-rule:nonzero;stroke:none"
           id="path24"
           inkscape:connector-curvature="0" /><path
           d="m 96.64746,229.31348 h 179.03027 v 1.40625 H 96.64746 Z"
           style="fill:#eb222c;fill-opacity:1;fill-rule:nonzero;stroke:none"
           id="path26"
           inkscape:connector-curvature="0" /><path
           d="m 96.64746,227.85156 h 179.03027 v 1.4043 H 96.64746 Z"
           style="fill:#eb222c;fill-opacity:1;fill-rule:nonzero;stroke:none"
           id="path28"
           inkscape:connector-curvature="0" /><path
           d="m 96.64746,226.38867 h 179.03027 v 1.40625 H 96.64746 Z"
           style="fill:#eb222c;fill-opacity:1;fill-rule:nonzero;stroke:none"
           id="path30"
           inkscape:connector-curvature="0" /><path
           d="m 96.64746,224.92773 h 179.03027 v 1.40528 H 96.64746 Z"
           style="fill:#eb222c;fill-opacity:1;fill-rule:nonzero;stroke:none"
           id="path32"
           inkscape:connector-curvature="0" /><path
           d="m 96.64746,223.46484 h 179.03027 v 1.40625 H 96.64746 Z"
           style="fill:#eb222c;fill-opacity:1;fill-rule:nonzero;stroke:none"
           id="path34"
           inkscape:connector-curvature="0" /><path
           d="m 96.64746,222.00293 h 179.03027 v 1.40527 H 96.64746 Z"
           style="fill:#eb222c;fill-opacity:1;fill-rule:nonzero;stroke:none"
           id="path36"
           inkscape:connector-curvature="0" /><path
           d="m 96.64746,220.54102 h 179.03027 v 1.40527 H 96.64746 Z"
           style="fill:#eb222c;fill-opacity:1;fill-rule:nonzero;stroke:none"
           id="path38"
           inkscape:connector-curvature="0" /><path
           d="m 96.64746,219.07813 h 179.03027 v 1.40625 H 96.64746 Z"
           style="fill:#eb222c;fill-opacity:1;fill-rule:nonzero;stroke:none"
           id="path40"
           inkscape:connector-curvature="0" /><path
           d="m 96.64746,217.61621 h 179.03027 v 1.40527 H 96.64746 Z"
           style="fill:#eb222c;fill-opacity:1;fill-rule:nonzero;stroke:none"
           id="path42"
           inkscape:connector-curvature="0" /><path
           d="m 96.64746,216.1543 h 179.03027 v 1.40527 H 96.64746 Z"
           style="fill:#eb222c;fill-opacity:1;fill-rule:nonzero;stroke:none"
           id="path44"
           inkscape:connector-curvature="0" /><path
           d="m 96.64746,214.69141 h 179.03027 v 1.40625 H 96.64746 Z"
           style="fill:#eb222c;fill-opacity:1;fill-rule:nonzero;stroke:none"
           id="path46"
           inkscape:connector-curvature="0" /><path
           d="m 96.64746,213.23047 h 179.03027 v 1.4043 H 96.64746 Z"
           style="fill:#eb222c;fill-opacity:1;fill-rule:nonzero;stroke:none"
           id="path48"
           inkscape:connector-curvature="0" /><path
           d="m 96.64746,211.76758 h 179.03027 v 1.40527 H 96.64746 Z"
           style="fill:#eb222c;fill-opacity:1;fill-rule:nonzero;stroke:none"
           id="path50"
           inkscape:connector-curvature="0" /><path
           d="m 96.64746,210.30469 h 179.03027 v 1.40625 H 96.64746 Z"
           style="fill:#eb222c;fill-opacity:1;fill-rule:nonzero;stroke:none"
           id="path52"
           inkscape:connector-curvature="0" /><path
           d="m 96.64746,208.84277 h 179.03027 v 1.40528 H 96.64746 Z"
           style="fill:#eb222c;fill-opacity:1;fill-rule:nonzero;stroke:none"
           id="path54"
           inkscape:connector-curvature="0" /><path
           d="m 96.64746,207.38086 h 179.03027 v 1.4043 H 96.64746 Z"
           style="fill:#eb222c;fill-opacity:1;fill-rule:nonzero;stroke:none"
           id="path56"
           inkscape:connector-curvature="0" /><path
           d="m 96.64746,205.91797 h 179.03027 v 1.40625 H 96.64746 Z"
           style="fill:#eb222c;fill-opacity:1;fill-rule:nonzero;stroke:none"
           id="path58"
           inkscape:connector-curvature="0" /><path
           d="m 96.64746,204.45605 h 179.03027 v 1.40625 H 96.64746 Z"
           style="fill:#eb222c;fill-opacity:1;fill-rule:nonzero;stroke:none"
           id="path60"
           inkscape:connector-curvature="0" /><path
           d="m 96.64746,202.99414 h 179.03027 v 1.40625 H 96.64746 Z"
           style="fill:#eb222c;fill-opacity:1;fill-rule:nonzero;stroke:none"
           id="path62"
           inkscape:connector-curvature="0" /><path
           d="m 96.64746,201.53125 h 179.03027 v 1.40625 H 96.64746 Z"
           style="fill:#eb222c;fill-opacity:1;fill-rule:nonzero;stroke:none"
           id="path64"
           inkscape:connector-curvature="0" /><path
           d="m 96.64746,200.07031 h 179.03027 v 1.4043 H 96.64746 Z"
           style="fill:#eb222c;fill-opacity:1;fill-rule:nonzero;stroke:none"
           id="path66"
           inkscape:connector-curvature="0" /><path
           d="m 96.64746,198.60742 h 179.03027 v 1.40625 H 96.64746 Z"
           style="fill:#eb222c;fill-opacity:1;fill-rule:nonzero;stroke:none"
           id="path68"
           inkscape:connector-curvature="0" /><path
           d="m 96.64746,197.14551 h 179.03027 v 1.40527 H 96.64746 Z"
           style="fill:#eb222c;fill-opacity:1;fill-rule:nonzero;stroke:none"
           id="path70"
           inkscape:connector-curvature="0" /><path
           d="m 96.64746,195.68359 h 179.03027 v 1.4043 H 96.64746 Z"
           style="fill:#eb222c;fill-opacity:1;fill-rule:nonzero;stroke:none"
           id="path72"
           inkscape:connector-curvature="0" /><path
           d="m 96.64746,194.2207 h 179.03027 v 1.40528 H 96.64746 Z"
           style="fill:#eb222c;fill-opacity:1;fill-rule:nonzero;stroke:none"
           id="path74"
           inkscape:connector-curvature="0" /><path
           d="m 96.64746,192.75977 h 179.03027 v 1.40429 H 96.64746 Z"
           style="fill:#eb222c;fill-opacity:1;fill-rule:nonzero;stroke:none"
           id="path76"
           inkscape:connector-curvature="0" /><path
           d="m 96.64746,191.29688 h 179.03027 v 1.40429 H 96.64746 Z"
           style="fill:#eb222c;fill-opacity:1;fill-rule:nonzero;stroke:none"
           id="path78"
           inkscape:connector-curvature="0" /><path
           d="m 96.64746,189.83496 h 179.03027 v 1.4043 H 96.64746 Z"
           style="fill:#eb222c;fill-opacity:1;fill-rule:nonzero;stroke:none"
           id="path80"
           inkscape:connector-curvature="0" /><path
           d="m 96.64746,188.37109 h 179.03027 v 1.40625 H 96.64746 Z"
           style="fill:#eb222c;fill-opacity:1;fill-rule:nonzero;stroke:none"
           id="path82"
           inkscape:connector-curvature="0" /><path
           d="m 96.64746,186.91016 h 179.03027 v 1.40429 H 96.64746 Z"
           style="fill:#eb222c;fill-opacity:1;fill-rule:nonzero;stroke:none"
           id="path84"
           inkscape:connector-curvature="0" /><path
           d="m 96.64746,185.44727 h 179.03027 v 1.40625 H 96.64746 Z"
           style="fill:#eb222c;fill-opacity:1;fill-rule:nonzero;stroke:none"
           id="path86"
           inkscape:connector-curvature="0" /><path
           d="m 96.64746,183.98633 h 179.03027 v 1.40527 H 96.64746 Z"
           style="fill:#eb222c;fill-opacity:1;fill-rule:nonzero;stroke:none"
           id="path88"
           inkscape:connector-curvature="0" /><path
           d="m 96.64746,182.52246 h 179.03027 v 1.40625 H 96.64746 Z"
           style="fill:#eb222c;fill-opacity:1;fill-rule:nonzero;stroke:none"
           id="path90"
           inkscape:connector-curvature="0" /><path
           d="m 96.64746,181.06055 h 179.03027 v 1.40625 H 96.64746 Z"
           style="fill:#eb222c;fill-opacity:1;fill-rule:nonzero;stroke:none"
           id="path92"
           inkscape:connector-curvature="0" /><path
           d="m 96.64746,179.59863 h 179.03027 v 1.40528 H 96.64746 Z"
           style="fill:#eb222c;fill-opacity:1;fill-rule:nonzero;stroke:none"
           id="path94"
           inkscape:connector-curvature="0" /><path
           d="m 96.64746,178.13672 h 179.03027 v 1.40625 H 96.64746 Z"
           style="fill:#eb222c;fill-opacity:1;fill-rule:nonzero;stroke:none"
           id="path96"
           inkscape:connector-curvature="0" /><path
           d="m 96.64746,176.67383 h 179.03027 v 1.40625 H 96.64746 Z"
           style="fill:#eb222c;fill-opacity:1;fill-rule:nonzero;stroke:none"
           id="path98"
           inkscape:connector-curvature="0" /><path
           d="m 96.64746,175.21191 h 179.03027 v 1.40528 H 96.64746 Z"
           style="fill:#eb222c;fill-opacity:1;fill-rule:nonzero;stroke:none"
           id="path100"
           inkscape:connector-curvature="0" /><path
           d="m 96.64746,173.75 h 179.03027 v 1.40527 H 96.64746 Z"
           style="fill:#eb222c;fill-opacity:1;fill-rule:nonzero;stroke:none"
           id="path102"
           inkscape:connector-curvature="0" /><path
           d="m 96.64746,172.28711 h 179.03027 v 1.40625 H 96.64746 Z"
           style="fill:#eb222c;fill-opacity:1;fill-rule:nonzero;stroke:none"
           id="path104"
           inkscape:connector-curvature="0" /><path
           d="m 96.64746,170.8252 h 179.03027 v 1.40527 H 96.64746 Z"
           style="fill:#eb222c;fill-opacity:1;fill-rule:nonzero;stroke:none"
           id="path106"
           inkscape:connector-curvature="0" /><path
           d="m 96.64746,169.36328 h 179.03027 v 1.40527 H 96.64746 Z"
           style="fill:#eb222c;fill-opacity:1;fill-rule:nonzero;stroke:none"
           id="path108"
           inkscape:connector-curvature="0" /><path
           d="m 96.64746,167.90039 h 179.03027 v 1.40625 H 96.64746 Z"
           style="fill:#eb222c;fill-opacity:1;fill-rule:nonzero;stroke:none"
           id="path110"
           inkscape:connector-curvature="0" /><path
           d="m 96.64746,166.44043 h 179.03027 v 1.4043 H 96.64746 Z"
           style="fill:#eb222c;fill-opacity:1;fill-rule:nonzero;stroke:none"
           id="path112"
           inkscape:connector-curvature="0" /><path
           d="m 96.64746,164.97461 h 179.03027 v 1.40625 H 96.64746 Z"
           style="fill:#eb222c;fill-opacity:1;fill-rule:nonzero;stroke:none"
           id="path114"
           inkscape:connector-curvature="0" /><path
           d="m 96.64746,163.51465 h 179.03027 v 1.40332 H 96.64746 Z"
           style="fill:#eb222c;fill-opacity:1;fill-rule:nonzero;stroke:none"
           id="path116"
           inkscape:connector-curvature="0" /><path
           d="m 96.64746,162.05273 h 179.03027 v 1.40332 H 96.64746 Z"
           style="fill:#eb222c;fill-opacity:1;fill-rule:nonzero;stroke:none"
           id="path118"
           inkscape:connector-curvature="0" /><path
           d="m 96.64746,160.58887 h 179.03027 v 1.40625 H 96.64746 Z"
           style="fill:#eb222c;fill-opacity:1;fill-rule:nonzero;stroke:none"
           id="path120"
           inkscape:connector-curvature="0" /><path
           d="m 96.64746,159.12793 h 179.03027 v 1.4043 H 96.64746 Z"
           style="fill:#eb222c;fill-opacity:1;fill-rule:nonzero;stroke:none"
           id="path122"
           inkscape:connector-curvature="0" /><path
           d="m 96.64746,157.66406 h 179.03027 v 1.40723 H 96.64746 Z"
           style="fill:#eb222c;fill-opacity:1;fill-rule:nonzero;stroke:none"
           id="path124"
           inkscape:connector-curvature="0" /><path
           d="m 96.64746,156.2041 h 179.03027 v 1.40332 H 96.64746 Z"
           style="fill:#eb222c;fill-opacity:1;fill-rule:nonzero;stroke:none"
           id="path126"
           inkscape:connector-curvature="0" /><path
           d="m 96.64746,154.74023 h 179.03027 v 1.40723 H 96.64746 Z"
           style="fill:#eb222c;fill-opacity:1;fill-rule:nonzero;stroke:none"
           id="path128"
           inkscape:connector-curvature="0" /><path
           d="m 96.64746,153.2793 h 179.03027 v 1.40429 H 96.64746 Z"
           style="fill:#eb222c;fill-opacity:1;fill-rule:nonzero;stroke:none"
           id="path130"
           inkscape:connector-curvature="0" /><path
           d="m 96.64746,151.81543 h 179.03027 v 1.40723 H 96.64746 Z"
           style="fill:#eb222c;fill-opacity:1;fill-rule:nonzero;stroke:none"
           id="path132"
           inkscape:connector-curvature="0" /><path
           d="m 96.64746,150.35547 h 179.03027 v 1.40234 H 96.64746 Z"
           style="fill:#eb222c;fill-opacity:1;fill-rule:nonzero;stroke:none"
           id="path134"
           inkscape:connector-curvature="0" /><path
           d="m 96.64746,148.89355 h 179.03027 v 1.4043 H 96.64746 Z"
           style="fill:#eb222c;fill-opacity:1;fill-rule:nonzero;stroke:none"
           id="path136"
           inkscape:connector-curvature="0" /><path
           d="m 96.64746,147.42969 h 179.03027 v 1.40429 H 96.64746 Z"
           style="fill:#eb222c;fill-opacity:1;fill-rule:nonzero;stroke:none"
           id="path138"
           inkscape:connector-curvature="0" /><path
           d="m 96.64746,145.9668 h 179.03027 v 1.40625 H 96.64746 Z"
           style="fill:#eb222c;fill-opacity:1;fill-rule:nonzero;stroke:none"
           id="path140"
           inkscape:connector-curvature="0" /><path
           d="m 96.64746,144.50586 h 179.03027 v 1.40332 H 96.64746 Z"
           style="fill:#eb222c;fill-opacity:1;fill-rule:nonzero;stroke:none"
           id="path142"
           inkscape:connector-curvature="0" /><path
           d="m 96.64746,143.04395 h 179.03027 v 1.40527 H 96.64746 Z"
           style="fill:#eb222c;fill-opacity:1;fill-rule:nonzero;stroke:none"
           id="path144"
           inkscape:connector-curvature="0" /><path
           d="m 96.64746,141.58301 h 179.03027 v 1.40234 H 96.64746 Z"
           style="fill:#eb222c;fill-opacity:1;fill-rule:nonzero;stroke:none"
           id="path146"
           inkscape:connector-curvature="0" /><path
           d="m 96.64746,140.11816 h 179.03027 v 1.40625 H 96.64746 Z"
           style="fill:#eb222c;fill-opacity:1;fill-rule:nonzero;stroke:none"
           id="path148"
           inkscape:connector-curvature="0" /><path
           d="m 96.64746,138.6582 h 179.03027 v 1.40332 H 96.64746 Z"
           style="fill:#eb222c;fill-opacity:1;fill-rule:nonzero;stroke:none"
           id="path150"
           inkscape:connector-curvature="0" /><path
           d="m 96.64746,137.19531 h 179.03027 v 1.4043 H 96.64746 Z"
           style="fill:#eb222c;fill-opacity:1;fill-rule:nonzero;stroke:none"
           id="path152"
           inkscape:connector-curvature="0" /><path
           d="m 96.64746,135.73438 h 179.03027 v 1.40332 H 96.64746 Z"
           style="fill:#eb222c;fill-opacity:1;fill-rule:nonzero;stroke:none"
           id="path154"
           inkscape:connector-curvature="0" /><path
           d="m 96.64746,134.26855 h 179.03027 v 1.40625 H 96.64746 Z"
           style="fill:#eb222c;fill-opacity:1;fill-rule:nonzero;stroke:none"
           id="path156"
           inkscape:connector-curvature="0" /><path
           d="m 96.64746,132.80859 h 179.03027 v 1.4043 H 96.64746 Z"
           style="fill:#eb222c;fill-opacity:1;fill-rule:nonzero;stroke:none"
           id="path158"
           inkscape:connector-curvature="0" /><path
           d="m 96.64746,131.3457 h 179.03027 v 1.40528 H 96.64746 Z"
           style="fill:#eb222c;fill-opacity:1;fill-rule:nonzero;stroke:none"
           id="path160"
           inkscape:connector-curvature="0" /><path
           d="m 96.64746,129.88477 h 179.03027 v 1.40429 H 96.64746 Z"
           style="fill:#eb222c;fill-opacity:1;fill-rule:nonzero;stroke:none"
           id="path162"
           inkscape:connector-curvature="0" /><path
           d="m 96.64746,128.41992 h 179.03027 v 1.40918 H 96.64746 Z"
           style="fill:#eb222c;fill-opacity:1;fill-rule:nonzero;stroke:none"
           id="path164"
           inkscape:connector-curvature="0" /><path
           d="m 96.64746,126.95996 h 179.03027 v 1.40332 H 96.64746 Z"
           style="fill:#eb222c;fill-opacity:1;fill-rule:nonzero;stroke:none"
           id="path166"
           inkscape:connector-curvature="0" /><path
           d="m 96.64746,125.49707 h 179.03027 v 1.40527 H 96.64746 Z"
           style="fill:#eb222c;fill-opacity:1;fill-rule:nonzero;stroke:none"
           id="path168"
           inkscape:connector-curvature="0" /><path
           d="m 96.64746,124.03613 h 179.03027 v 1.40332 H 96.64746 Z"
           style="fill:#eb222c;fill-opacity:1;fill-rule:nonzero;stroke:none"
           id="path170"
           inkscape:connector-curvature="0" /><path
           d="m 96.64746,122.57031 h 179.03027 v 1.40918 H 96.64746 Z"
           style="fill:#eb222c;fill-opacity:1;fill-rule:nonzero;stroke:none"
           id="path172"
           inkscape:connector-curvature="0" /><path
           d="m 96.64746,121.11035 h 179.03027 v 1.4043 H 96.64746 Z"
           style="fill:#eb222c;fill-opacity:1;fill-rule:nonzero;stroke:none"
           id="path174"
           inkscape:connector-curvature="0" /><path
           d="m 96.64746,119.64746 h 179.03027 v 1.40625 H 96.64746 Z"
           style="fill:#eb222c;fill-opacity:1;fill-rule:nonzero;stroke:none"
           id="path176"
           inkscape:connector-curvature="0" /><path
           d="m 96.64746,118.18652 h 179.03027 v 1.4043 H 96.64746 Z"
           style="fill:#eb222c;fill-opacity:1;fill-rule:nonzero;stroke:none"
           id="path178"
           inkscape:connector-curvature="0" /><path
           d="m 96.64746,116.72168 h 179.03027 v 1.40918 H 96.64746 Z"
           style="fill:#eb222c;fill-opacity:1;fill-rule:nonzero;stroke:none"
           id="path180"
           inkscape:connector-curvature="0" /><path
           d="m 96.64746,115.26172 h 179.03027 v 1.40332 H 96.64746 Z"
           style="fill:#eb222c;fill-opacity:1;fill-rule:nonzero;stroke:none"
           id="path182"
           inkscape:connector-curvature="0" /><path
           d="m 96.64746,113.79883 h 179.03027 v 1.40527 H 96.64746 Z"
           style="fill:#eb222c;fill-opacity:1;fill-rule:nonzero;stroke:none"
           id="path184"
           inkscape:connector-curvature="0" /><path
           d="m 96.64746,112.33789 h 179.03027 v 1.40332 H 96.64746 Z"
           style="fill:#eb222c;fill-opacity:1;fill-rule:nonzero;stroke:none"
           id="path186"
           inkscape:connector-curvature="0" /><path
           d="m 96.64746,110.875 h 179.03027 v 1.40625 H 96.64746 Z"
           style="fill:#eb222c;fill-opacity:1;fill-rule:nonzero;stroke:none"
           id="path188"
           inkscape:connector-curvature="0" /><path
           d="m 96.64746,109.41211 h 179.03027 v 1.4043 H 96.64746 Z"
           style="fill:#eb222c;fill-opacity:1;fill-rule:nonzero;stroke:none"
           id="path190"
           inkscape:connector-curvature="0" /><path
           d="m 96.64746,107.9502 h 179.03027 v 1.40527 H 96.64746 Z"
           style="fill:#eb222c;fill-opacity:1;fill-rule:nonzero;stroke:none"
           id="path192"
           inkscape:connector-curvature="0" /></g></g><path
       d="m 203.65039,227.12891 c 0,0 -3.54492,3.32812 -10.13867,3.07617 -6.5957,-0.25391 -11.03906,-1.01367 -13.54981,-0.25391 -2.51269,0.75977 -5.69824,2.78711 -9.78027,1.52051 -4.08398,-1.2666 -9.15332,-2.31543 -11.66601,-2.31543 -2.51368,0 -12.00098,-1.0791 -16.10694,-2.02734 -4.87988,-1.12696 -14.08252,-5.38868 -14.08252,-5.38868 0,0 19.45508,6.35352 24.70899,2.4004 2,-1.50782 -6.03516,-2.84766 -7.6045,-3.10157 -1.5708,-0.25293 -3.48291,-6.13281 -7.61035,-9.42383 -4.12842,-3.29296 -15.60107,1.40821 -19.99707,1.66211 -4.39746,0.25391 16.24268,-9.95703 21.58203,-8.40039 5.33838,1.55469 12.32129,13.34961 18.167,7.74414 3.29296,-3.15429 0.29492,-6.4707 -4.10254,-6.97851 -4.39649,-0.50586 -6.84473,-4.59961 -14.38135,-11.98047 -7.53809,-7.38086 -16.91553,-9.26172 -21.93945,-8.75586 -5.02588,0.50684 15.4331,-4.63086 18.93408,-2.0625 3.49902,2.56934 14.87402,12.67188 20.81543,12.17188 6.2666,-0.5293 9.24219,-4.67383 4.75781,-9.09571 -7.06641,-6.96777 -18.08008,-2.88672 -18.08008,-2.88672 0,0 1.05518,-4.05664 8.61328,-4.74804 12.57032,-1.14844 8.91309,-3.67969 4.44141,-5.86133 -6.88574,-3.35938 -25.4751,-0.76758 -30.30078,-8.85449 l -3.79785,-6.50098 c 0,0 9.73291,7.75 15.43261,8.25781 5.69678,0.50586 6.38672,-3.74121 4.20166,-6.78613 -4.17431,-5.82031 -27.84423,-4.42188 -27.84423,-4.42188 0,0 14.93457,-9.0957 28.08642,-2.82226 13.77197,6.56738 17.14795,10.57129 19.87451,7.63183 3.46875,-3.73632 -3.09472,-6.875 -5.96679,-6.875 -2.8711,0 -13.54834,-2.7832 -17.04834,-8.39257 -3.5,-5.60743 -13.59473,-10.67383 -24.31787,-9.91309 0,0 18.61914,-2.82227 25.88818,1.01172 7.26904,3.83496 14.78467,3.70801 15.79248,0.50879 1.09766,-3.48242 -0.35938,-5.10352 -3.5,-6.87598 -3.14063,-1.77246 -11.23242,-8.52344 -19.24658,-7.63574 -18.99024,2.11035 -37.23926,-12.44336 -37.23926,-12.44336 0,0 22.74805,8.35742 34.72656,5.31738 11.97901,-3.03808 31.56006,0.28907 41.02588,6.40332 9.46777,6.11133 22.72949,7.5625 26.49805,9.11914 3.76855,1.55567 4.75488,1.55567 5.38379,5.10059 0.6289,3.54687 1.25586,6.36914 0.3125,8.64746 -0.94141,2.28027 -0.94141,3.33008 -0.62696,5.35449 0.31446,2.02539 1.25684,3.00391 0.94336,4.81348 -0.3164,1.80566 -1.57031,4.08691 -1.57031,5.85937 0,1.77247 0,5.3545 0,5.3545 l 26.15625,-29.52344 c 0,0 27.77149,15.0166 46.07715,13.49609 l -42.26367,39.69141 40.06543,41.20996 h -51.41797 l -18.61719,-25.94141 c 0,0 1.25391,5.60743 0.94141,8.13965 -0.31446,2.53418 0.3125,4.59571 0.94238,6.6211 0.62793,2.02636 0.62695,5.8623 0.31348,6.62207 -0.31348,0.75879 -1.88477,2.53125 -1.88477,2.53125 z"
       style="fill:none;stroke:#ffffff;stroke-width:0.98009002;stroke-linecap:butt;stroke-linejoin:round;stroke-miterlimit:3.8636899;stroke-dasharray:none;stroke-opacity:1"
       id="path194"
       inkscape:connector-curvature="0" /><path
       d="m 390.41504,158.04102 c -4.0332,-2.84473 -7.61133,-4.17774 -8.88086,-4.60938 -3.4668,-1.17871 -5.46387,-1.29004 -9.7334,-3.22656 -2.19824,-0.99903 -2.6289,-1.31055 -3.12793,-1.4375 -0.47265,-0.12012 -1.00488,-0.0752 -3.13574,-0.28516 -4.39844,-0.42871 -5.60547,0.64551 -9.2002,-0.21387 -3.59668,-0.86035 -11.60156,-0.64746 -15.07031,-1.29199 -3.46875,-0.64355 -12.79687,1.29199 -18.13281,2.15137 -5.33691,0.8623 -16.53223,-0.21289 -19.73535,-0.85938 -3.20117,-0.64746 -7.86524,0.64649 -7.86524,0.64649 0,0 -11.10547,0.18848 -15.46484,2.58105 -9.41016,5.16504 -38.18164,-4.26464 -38.18164,-4.26464 6.07617,4.89648 14.60644,8.68945 22.46094,10.7998 l 126.06738,0.01 v 0 z"
       style="fill:#e8252c;fill-opacity:1;fill-rule:evenodd;stroke:none"
       id="path196"
       inkscape:connector-curvature="0" /><g
       id="g198"><g
         id="g200"
         clip-path="url(#clipPath204)"><path
           d="m 241.88379,156.68262 h 163.78516 v 1.40136 H 241.88379 Z"
           style="fill:#e8252c;fill-opacity:1;fill-rule:nonzero;stroke:none"
           id="path206"
           inkscape:connector-curvature="0" /><path
           d="m 241.88379,155.22461 h 163.78516 v 1.40527 H 241.88379 Z"
           style="fill:#e8252c;fill-opacity:1;fill-rule:nonzero;stroke:none"
           id="path208"
           inkscape:connector-curvature="0" /><path
           d="m 241.88379,153.76855 h 163.78516 v 1.40333 H 241.88379 Z"
           style="fill:#e8252c;fill-opacity:1;fill-rule:nonzero;stroke:none"
           id="path210"
           inkscape:connector-curvature="0" /><path
           d="m 241.88379,152.31152 h 163.78516 v 1.40528 H 241.88379 Z"
           style="fill:#e8252c;fill-opacity:1;fill-rule:nonzero;stroke:none"
           id="path212"
           inkscape:connector-curvature="0" /><path
           d="m 241.88379,150.85645 h 163.78516 v 1.40527 H 241.88379 Z"
           style="fill:#e8252c;fill-opacity:1;fill-rule:nonzero;stroke:none"
           id="path214"
           inkscape:connector-curvature="0" /><path
           d="m 241.88379,149.40137 h 163.78516 v 1.40429 H 241.88379 Z"
           style="fill:#e8252c;fill-opacity:1;fill-rule:nonzero;stroke:none"
           id="path216"
           inkscape:connector-curvature="0" /><path
           d="m 241.88379,147.94336 h 163.78516 v 1.40625 H 241.88379 Z"
           style="fill:#e8252c;fill-opacity:1;fill-rule:nonzero;stroke:none"
           id="path218"
           inkscape:connector-curvature="0" /><path
           d="m 241.88379,146.4873 h 163.78516 v 1.40333 H 241.88379 Z"
           style="fill:#e8252c;fill-opacity:1;fill-rule:nonzero;stroke:none"
           id="path220"
           inkscape:connector-curvature="0" /></g></g><path
       d="m 264.34766,158.04102 c 6.30468,1.68554 12.17382,2.29492 15.98828,1.5205 3.73047,-0.75879 13.86426,1.07422 15.46484,1.292 1.60059,0.21386 6.13672,0.53125 6.79688,1.82324 0.66308,1.29101 -7.4043,1.38965 -10.4668,0.96094 -3.06348,-0.43067 -5.87109,1.99121 -9.4668,3.06738 -3.59765,1.07617 -12.59668,-1.87598 -12.59668,-1.87598 0,0 4.80274,2.25488 7.06543,4.18945 2.26367,1.9375 9.92774,1.18262 18.32617,1.61329 8.4004,0.43066 3.2754,4.41113 -0.99218,5.27246 -4.27051,0.85937 -8.13282,-1.72071 -16.26563,-1.50586 -8.13379,0.21679 -12.13476,8.27929 -13.20312,8.71094 -1.87891,0.75781 8.69336,-3.25586 12.16211,-4.33204 3.46875,-1.07519 11.98828,2.67383 11.04101,5.7793 -3.18554,10.45117 -12.40234,1.02149 -18.66699,0.80664 -6.26465,-0.21484 -26.54297,2.58301 -26.54297,2.58301 7.59863,-0.64551 30.81152,4.83691 34.40918,6.55762 3.59766,1.7207 14.26953,-1.50586 19.2002,-2.15039 4.93066,-0.64551 5.60254,2.36523 4.00293,4.94726 -1.60157,2.58203 -10.80274,2.25586 -18.9336,3.54688 C 273.53711,202.1377 269,213.21484 269,213.21484 c 2.40234,-2.90039 9.08887,-5.95312 14.28711,-7.45996 5.19727,-1.50488 13.69727,4.40821 12.62891,7.63379 -1.06641,3.22852 1.33496,4.59571 -9.46485,4.81153 -8.69336,0.17285 -11.80273,-2.68262 -12.68457,-3.80372 1.19629,1.75586 5.69824,8.12891 7.76856,7.75782 2.40234,-0.43164 11.86328,0.30468 13.46484,1.16406 1.60059,0.86133 1.33398,2.58203 0.2666,3.875 -1.0664,1.28906 -5.93066,-1.31445 -8.66601,-0.43164 -2.66895,0.86035 -6.26465,-0.64649 -6.26465,-0.64649 0,0 3.86328,2.58399 6.79785,3.65918 2.93555,1.07618 12.13574,1.17872 16.7998,1.39356 4.66407,0.21484 6.13575,-0.42969 8.66602,-0.42969 2.5293,0 5.33594,-0.64551 6.40332,0.21485 1.06641,0.86132 7.59961,1.07617 11.59961,1.07617 4.00391,0 8.66894,-0.86133 13.86621,-0.86133 5.19727,0 9.46582,-1.0752 12.40039,-0.21484 2.93555,0.86132 7.06738,-0.86036 13.59863,-2.25391 6.53125,-1.39453 8.40039,-2.79883 8.40039,-2.79883 0,0 26.93653,-2.15039 26.93653,-36.44824 0,-17.06055 -8.37989,-26.5 -15.38965,-31.4209 l -126.06738,0.01 v 0 m 76.91894,45.26562 V 173.2014 c 0,0 28.40039,-2.58203 28.40039,15.26953 0,17.84961 -28.40039,14.83594 -28.40039,14.83594 z"
       style="fill:#ea242d;fill-opacity:1;fill-rule:evenodd;stroke:none"
       id="path222"
       inkscape:connector-curvature="0" /><g
       id="g224"><g
         id="g226"
         clip-path="url(#clipPath230)"><path
           d="m 241.88379,230.94336 h 163.78516 v 1.40527 H 241.88379 Z"
           style="fill:#ea242d;fill-opacity:1;fill-rule:nonzero;stroke:none"
           id="path232"
           inkscape:connector-curvature="0" /><path
           d="m 241.88379,229.48633 h 163.78516 v 1.40625 H 241.88379 Z"
           style="fill:#ea242d;fill-opacity:1;fill-rule:nonzero;stroke:none"
           id="path234"
           inkscape:connector-curvature="0" /><path
           d="m 241.88379,228.03125 h 163.78516 v 1.40625 H 241.88379 Z"
           style="fill:#ea242d;fill-opacity:1;fill-rule:nonzero;stroke:none"
           id="path236"
           inkscape:connector-curvature="0" /><path
           d="m 241.88379,226.5752 h 163.78516 v 1.40527 H 241.88379 Z"
           style="fill:#ea242d;fill-opacity:1;fill-rule:nonzero;stroke:none"
           id="path238"
           inkscape:connector-curvature="0" /><path
           d="m 241.88379,225.11914 h 163.78516 v 1.40625 H 241.88379 Z"
           style="fill:#ea242d;fill-opacity:1;fill-rule:nonzero;stroke:none"
           id="path240"
           inkscape:connector-curvature="0" /><path
           d="m 241.88379,223.66211 h 163.78516 v 1.40625 H 241.88379 Z"
           style="fill:#ea242d;fill-opacity:1;fill-rule:nonzero;stroke:none"
           id="path242"
           inkscape:connector-curvature="0" /><path
           d="m 241.88379,222.20703 h 163.78516 v 1.40625 H 241.88379 Z"
           style="fill:#ea242d;fill-opacity:1;fill-rule:nonzero;stroke:none"
           id="path244"
           inkscape:connector-curvature="0" /><path
           d="m 241.88379,220.75098 h 163.78516 v 1.40429 H 241.88379 Z"
           style="fill:#ea242d;fill-opacity:1;fill-rule:nonzero;stroke:none"
           id="path246"
           inkscape:connector-curvature="0" /><path
           d="m 241.88379,219.29492 h 163.78516 v 1.4043 H 241.88379 Z"
           style="fill:#ea242d;fill-opacity:1;fill-rule:nonzero;stroke:none"
           id="path248"
           inkscape:connector-curvature="0" /><path
           d="m 241.88379,217.83789 h 163.78516 v 1.40527 H 241.88379 Z"
           style="fill:#ea242d;fill-opacity:1;fill-rule:nonzero;stroke:none"
           id="path250"
           inkscape:connector-curvature="0" /><path
           d="m 241.88379,216.38281 h 163.78516 v 1.4043 H 241.88379 Z"
           style="fill:#ea242d;fill-opacity:1;fill-rule:nonzero;stroke:none"
           id="path252"
           inkscape:connector-curvature="0" /><path
           d="m 241.88379,214.92578 h 163.78516 v 1.40527 H 241.88379 Z"
           style="fill:#ea242d;fill-opacity:1;fill-rule:nonzero;stroke:none"
           id="path254"
           inkscape:connector-curvature="0" /><path
           d="m 241.88379,213.4707 h 163.78516 v 1.4043 H 241.88379 Z"
           style="fill:#ea242d;fill-opacity:1;fill-rule:nonzero;stroke:none"
           id="path256"
           inkscape:connector-curvature="0" /><path
           d="m 241.88379,212.01367 h 163.78516 v 1.40528 H 241.88379 Z"
           style="fill:#ea242d;fill-opacity:1;fill-rule:nonzero;stroke:none"
           id="path258"
           inkscape:connector-curvature="0" /><path
           d="m 241.88379,210.55664 h 163.78516 v 1.40625 H 241.88379 Z"
           style="fill:#ea242d;fill-opacity:1;fill-rule:nonzero;stroke:none"
           id="path260"
           inkscape:connector-curvature="0" /><path
           d="m 241.88379,209.10156 h 163.78516 v 1.40625 H 241.88379 Z"
           style="fill:#ea242d;fill-opacity:1;fill-rule:nonzero;stroke:none"
           id="path262"
           inkscape:connector-curvature="0" /><path
           d="m 241.88379,207.64551 h 163.78516 v 1.40527 H 241.88379 Z"
           style="fill:#ea242d;fill-opacity:1;fill-rule:nonzero;stroke:none"
           id="path264"
           inkscape:connector-curvature="0" /><path
           d="m 241.88379,206.18945 h 163.78516 v 1.4043 H 241.88379 Z"
           style="fill:#ea242d;fill-opacity:1;fill-rule:nonzero;stroke:none"
           id="path266"
           inkscape:connector-curvature="0" /><path
           d="m 241.88379,204.73242 h 163.78516 v 1.40625 H 241.88379 Z"
           style="fill:#ea242d;fill-opacity:1;fill-rule:nonzero;stroke:none"
           id="path268"
           inkscape:connector-curvature="0" /><path
           d="m 241.88379,203.27734 h 163.78516 v 1.4043 H 241.88379 Z"
           style="fill:#ea242d;fill-opacity:1;fill-rule:nonzero;stroke:none"
           id="path270"
           inkscape:connector-curvature="0" /><path
           d="m 241.88379,201.82031 h 163.78516 v 1.40528 H 241.88379 Z"
           style="fill:#ea242d;fill-opacity:1;fill-rule:nonzero;stroke:none"
           id="path272"
           inkscape:connector-curvature="0" /><path
           d="m 241.88379,200.36523 h 163.78516 v 1.4043 H 241.88379 Z"
           style="fill:#ea242d;fill-opacity:1;fill-rule:nonzero;stroke:none"
           id="path274"
           inkscape:connector-curvature="0" /><path
           d="m 241.88379,198.9082 h 163.78516 v 1.40528 H 241.88379 Z"
           style="fill:#ea242d;fill-opacity:1;fill-rule:nonzero;stroke:none"
           id="path276"
           inkscape:connector-curvature="0" /><path
           d="m 241.88379,197.45313 h 163.78516 v 1.40429 H 241.88379 Z"
           style="fill:#ea242d;fill-opacity:1;fill-rule:nonzero;stroke:none"
           id="path278"
           inkscape:connector-curvature="0" /><path
           d="m 241.88379,195.99609 h 163.78516 v 1.40528 H 241.88379 Z"
           style="fill:#ea242d;fill-opacity:1;fill-rule:nonzero;stroke:none"
           id="path280"
           inkscape:connector-curvature="0" /><path
           d="m 241.88379,194.54004 h 163.78516 v 1.40527 H 241.88379 Z"
           style="fill:#ea242d;fill-opacity:1;fill-rule:nonzero;stroke:none"
           id="path282"
           inkscape:connector-curvature="0" /><path
           d="m 241.88379,193.08398 h 163.78516 v 1.4043 H 241.88379 Z"
           style="fill:#ea242d;fill-opacity:1;fill-rule:nonzero;stroke:none"
           id="path284"
           inkscape:connector-curvature="0" /><path
           d="m 241.88379,191.62695 h 163.78516 v 1.40625 H 241.88379 Z"
           style="fill:#ea242d;fill-opacity:1;fill-rule:nonzero;stroke:none"
           id="path286"
           inkscape:connector-curvature="0" /><path
           d="m 241.88379,190.17188 h 163.78516 v 1.40527 H 241.88379 Z"
           style="fill:#ea242d;fill-opacity:1;fill-rule:nonzero;stroke:none"
           id="path288"
           inkscape:connector-curvature="0" /><path
           d="m 241.88379,188.71484 h 163.78516 v 1.40528 H 241.88379 Z"
           style="fill:#ea242d;fill-opacity:1;fill-rule:nonzero;stroke:none"
           id="path290"
           inkscape:connector-curvature="0" /><path
           d="m 241.88379,187.25977 h 163.78516 v 1.40527 H 241.88379 Z"
           style="fill:#ea242d;fill-opacity:1;fill-rule:nonzero;stroke:none"
           id="path292"
           inkscape:connector-curvature="0" /><path
           d="m 241.88379,185.80273 h 163.78516 v 1.40528 H 241.88379 Z"
           style="fill:#ea242d;fill-opacity:1;fill-rule:nonzero;stroke:none"
           id="path294"
           inkscape:connector-curvature="0" /><path
           d="m 241.88379,184.34766 h 163.78516 v 1.40527 H 241.88379 Z"
           style="fill:#ea242d;fill-opacity:1;fill-rule:nonzero;stroke:none"
           id="path296"
           inkscape:connector-curvature="0" /><path
           d="m 241.88379,182.89063 h 163.78516 v 1.40527 H 241.88379 Z"
           style="fill:#ea242d;fill-opacity:1;fill-rule:nonzero;stroke:none"
           id="path298"
           inkscape:connector-curvature="0" /><path
           d="m 241.88379,181.43555 h 163.78516 v 1.40527 H 241.88379 Z"
           style="fill:#ea242d;fill-opacity:1;fill-rule:nonzero;stroke:none"
           id="path300"
           inkscape:connector-curvature="0" /><path
           d="m 241.88379,179.97852 h 163.78516 v 1.40429 H 241.88379 Z"
           style="fill:#ea242d;fill-opacity:1;fill-rule:nonzero;stroke:none"
           id="path302"
           inkscape:connector-curvature="0" /><path
           d="m 241.88379,178.52344 h 163.78516 v 1.40429 H 241.88379 Z"
           style="fill:#ea242d;fill-opacity:1;fill-rule:nonzero;stroke:none"
           id="path304"
           inkscape:connector-curvature="0" /><path
           d="m 241.88379,177.06543 h 163.78516 v 1.40527 H 241.88379 Z"
           style="fill:#ea242d;fill-opacity:1;fill-rule:nonzero;stroke:none"
           id="path306"
           inkscape:connector-curvature="0" /><path
           d="m 241.88379,175.60938 h 163.78516 v 1.40625 H 241.88379 Z"
           style="fill:#ea242d;fill-opacity:1;fill-rule:nonzero;stroke:none"
           id="path308"
           inkscape:connector-curvature="0" /><path
           d="m 241.88379,174.1543 h 163.78516 v 1.40429 H 241.88379 Z"
           style="fill:#ea242d;fill-opacity:1;fill-rule:nonzero;stroke:none"
           id="path310"
           inkscape:connector-curvature="0" /><path
           d="m 241.88379,172.69824 h 163.78516 v 1.40528 H 241.88379 Z"
           style="fill:#ea242d;fill-opacity:1;fill-rule:nonzero;stroke:none"
           id="path312"
           inkscape:connector-curvature="0" /><path
           d="m 241.88379,171.24219 h 163.78516 v 1.40527 H 241.88379 Z"
           style="fill:#ea242d;fill-opacity:1;fill-rule:nonzero;stroke:none"
           id="path314"
           inkscape:connector-curvature="0" /><path
           d="m 241.88379,169.78613 h 163.78516 v 1.4043 H 241.88379 Z"
           style="fill:#ea242d;fill-opacity:1;fill-rule:nonzero;stroke:none"
           id="path316"
           inkscape:connector-curvature="0" /><path
           d="m 241.88379,168.3291 h 163.78516 v 1.40625 H 241.88379 Z"
           style="fill:#ea242d;fill-opacity:1;fill-rule:nonzero;stroke:none"
           id="path318"
           inkscape:connector-curvature="0" /><path
           d="m 241.88379,166.87402 h 163.78516 v 1.40332 H 241.88379 Z"
           style="fill:#ea242d;fill-opacity:1;fill-rule:nonzero;stroke:none"
           id="path320"
           inkscape:connector-curvature="0" /><path
           d="m 241.88379,165.41699 h 163.78516 v 1.40723 H 241.88379 Z"
           style="fill:#ea242d;fill-opacity:1;fill-rule:nonzero;stroke:none"
           id="path322"
           inkscape:connector-curvature="0" /><path
           d="m 241.88379,163.96094 h 163.78516 v 1.40429 H 241.88379 Z"
           style="fill:#ea242d;fill-opacity:1;fill-rule:nonzero;stroke:none"
           id="path324"
           inkscape:connector-curvature="0" /><path
           d="m 241.88379,162.50586 h 163.78516 v 1.40527 H 241.88379 Z"
           style="fill:#ea242d;fill-opacity:1;fill-rule:nonzero;stroke:none"
           id="path326"
           inkscape:connector-curvature="0" /><path
           d="m 241.88379,161.0498 h 163.78516 v 1.4043 H 241.88379 Z"
           style="fill:#ea242d;fill-opacity:1;fill-rule:nonzero;stroke:none"
           id="path328"
           inkscape:connector-curvature="0" /><path
           d="m 241.88379,159.59082 h 163.78516 v 1.40625 H 241.88379 Z"
           style="fill:#ea242d;fill-opacity:1;fill-rule:nonzero;stroke:none"
           id="path330"
           inkscape:connector-curvature="0" /><path
           d="m 241.88379,158.13574 h 163.78516 v 1.4043 H 241.88379 Z"
           style="fill:#ea242d;fill-opacity:1;fill-rule:nonzero;stroke:none"
           id="path332"
           inkscape:connector-curvature="0" /><path
           d="m 241.88379,156.68262 h 163.78516 v 1.40136 H 241.88379 Z"
           style="fill:#ea242d;fill-opacity:1;fill-rule:nonzero;stroke:none"
           id="path334"
           inkscape:connector-curvature="0" /></g></g><path
       d="m 341.2666,203.30664 v -30.10547 c 0,0 28.40039,-2.58203 28.40039,15.26953 0,17.84961 -28.40039,14.83594 -28.40039,14.83594 v 0 m 37.60156,22.59375 c 0,0 26.93653,-2.15039 26.93653,-36.44824 0,-26.87793 -20.80176,-34.83985 -24.27051,-36.02051 -3.4668,-1.17871 -5.46387,-1.29004 -9.7334,-3.22656 -2.19824,-0.99903 -2.6289,-1.31055 -3.12793,-1.4375 -0.47265,-0.12012 -1.00488,-0.0752 -3.13574,-0.28516 -4.39844,-0.42871 -5.60547,0.64551 -9.2002,-0.21387 -3.59668,-0.86035 -11.60156,-0.64746 -15.07031,-1.29199 -3.46875,-0.64355 -12.79687,1.29199 -18.13281,2.15137 -5.33691,0.8623 -16.53223,-0.21289 -19.73535,-0.85938 -3.20117,-0.64746 -7.86524,0.64649 -7.86524,0.64649 0,0 -11.10547,0.18848 -15.46484,2.58105 -9.41016,5.16504 -38.18164,-4.26464 -38.18164,-4.26464 10.95215,8.83105 29.88574,14.0664 38.44922,12.33007 3.73047,-0.75879 13.86426,1.07422 15.46484,1.292 1.60059,0.21386 6.13672,0.53125 6.79688,1.82324 0.66308,1.29101 -7.4043,1.38965 -10.4668,0.96094 -3.06348,-0.43067 -5.87109,1.99121 -9.4668,3.06738 -3.59765,1.07617 -12.59668,-1.87598 -12.59668,-1.87598 0,0 4.80274,2.25488 7.06543,4.18945 2.26367,1.9375 9.92774,1.18262 18.32617,1.61329 8.4004,0.43066 3.2754,4.41113 -0.99218,5.27246 -4.27051,0.85937 -8.13282,-1.72071 -16.26563,-1.50586 -8.13379,0.21679 -12.13476,8.27929 -13.20312,8.71094 -1.87891,0.75781 8.69336,-3.25586 12.16211,-4.33204 3.46875,-1.07519 11.98828,2.67383 11.04101,5.7793 -3.18554,10.45117 -12.40234,1.02149 -18.66699,0.80664 -6.26465,-0.21484 -26.54297,2.58301 -26.54297,2.58301 7.59863,-0.64551 30.81152,4.83691 34.40918,6.55762 3.59766,1.7207 14.26953,-1.50586 19.2002,-2.15039 4.93066,-0.64551 5.60254,2.36523 4.00293,4.94726 -1.60157,2.58203 -10.80274,2.25586 -18.9336,3.54688 C 273.53711,202.1377 269,213.21484 269,213.21484 c 2.40234,-2.90039 9.08887,-5.95312 14.28711,-7.45996 5.19727,-1.50488 13.69727,4.40821 12.62891,7.63379 -1.06641,3.22852 1.33496,4.59571 -9.46485,4.81153 -8.69336,0.17285 -11.80273,-2.68262 -12.68457,-3.80372 1.19629,1.75586 5.69824,8.12891 7.76856,7.75782 2.40234,-0.43164 11.86328,0.30468 13.46484,1.16406 1.60059,0.86133 1.33398,2.58203 0.2666,3.875 -1.0664,1.28906 -5.93066,-1.31445 -8.66601,-0.43164 -2.66895,0.86035 -6.26465,-0.64649 -6.26465,-0.64649 0,0 3.86328,2.58399 6.79785,3.65918 2.93555,1.07618 12.13574,1.17872 16.7998,1.39356 4.66407,0.21484 6.13575,-0.42969 8.66602,-0.42969 2.5293,0 5.33594,-0.64551 6.40332,0.21485 1.06641,0.86132 7.59961,1.07617 11.59961,1.07617 4.00391,0 8.66894,-0.86133 13.86621,-0.86133 5.19727,0 9.46582,-1.0752 12.40039,-0.21484 2.93555,0.86132 7.06738,-0.86036 13.59863,-2.25391 6.53125,-1.39453 8.40039,-2.79883 8.40039,-2.79883 z"
       style="fill:none;stroke:#ffffff;stroke-width:0.98009002;stroke-linecap:butt;stroke-linejoin:round;stroke-miterlimit:3.8636899;stroke-dasharray:none;stroke-opacity:1"
       id="path336"
       inkscape:connector-curvature="0" /><path
       d="m 521.71875,230.29785 c 0,0 -8.7793,0.91113 -14.38086,1.19238 -5.60254,0.28418 -17.88184,-1.1289 -20.33398,-0.8457 -2.45215,0.28125 -6.6543,2.54102 -11.91895,1.97656 -5.26367,-0.56445 -11.92969,-0.55468 -16.48144,-2.25976 -4.55372,-1.70313 -13.33106,-2.55078 -15.43262,-1.70313 -2.10059,0.84668 -11.20606,3.40821 -15.77051,2.26758 -4.56348,-1.13867 -11.56641,-1.97558 -18.23242,-7.35058 0,0 17.72266,1.458 19.9834,-1.4209 5.49023,-6.9961 -10.5293,-6.4961 -14.38086,-5.36621 -3.85156,1.12988 -10.16602,4.52734 -12.26758,6.22168 0,0 5.26367,-12.44532 16.83105,-13.57422 11.56836,-1.12891 14.72168,-1.1377 11.56836,-3.96289 -3.14941,-2.82227 -14.71875,-3.95313 -14.71875,-3.95313 0,0 -26.69433,0.54688 -28.09668,-0.0186 -1.40136,-0.56446 29.14161,-4.21973 33.35743,-5.35059 4.21484,-1.12988 15.42285,1.12402 18.22363,1.9707 2.80273,0.84766 6.66699,1.41211 9.81738,0 3.15332,-1.41113 4.91602,-1.1289 8.76758,0 3.85156,1.12989 7.01465,2.25977 6.66602,-0.28222 -0.35157,-2.54199 -8.07911,-5.36621 -11.57911,-5.36621 -3.50195,0 -15.78125,-0.29102 -21.03515,-3.96192 0,0 8.41504,2.25977 8.76562,0.56348 0.35157,-1.69336 -5.53027,-5.40332 -8.33105,-5.69531 -2.80176,-0.29102 -17.79102,2.9248 -23.05567,-3.57813 0,0 11.05274,1.64063 13.15332,0.22852 2.10254,-1.41211 3.86426,-3.9541 6.66504,-3.38867 2.80274,0.56347 4.90235,0.83789 4.20118,-1.42188 -0.69922,-2.25977 -4.88868,-5.36523 -7.70118,-5.64844 -2.81445,-0.28222 -11.71972,-0.47265 -16.79394,-3.88672 0,0 12.1875,0.11133 13.58887,-2.43164 1.40136,-2.53906 -2.42383,-5.84375 -9.07715,-4.71191 -6.65332,1.12988 -11.22852,2.27246 -20.69532,-0.55078 -9.46679,-2.82617 -27.31445,7.05469 -27.31445,7.05469 0,0 18.89942,-14.40528 25.56348,-13.84278 6.66699,0.56543 10.56347,2.28125 13.71484,1.14453 3.15137,-1.14062 3.46777,-1.72558 9.08203,-1.1582 5.61524,0.56348 9.81641,2.82422 9.11719,-1.12891 -0.7002,-3.9541 -12.95801,-4.2373 -15.07129,-3.39062 0,0 10.85742,-5.65723 15.07129,-4.80762 4.21289,0.84375 16.84473,4.2334 21.39648,1.97363 4.55274,-2.25781 15.08106,-1.97363 19.63282,-1.97363 4.55273,0 13.66894,-1.9873 15.77148,-4.24609 2.10059,-2.26172 11.58008,-7.06153 13.67969,-6.21387 2.10254,0.84766 8.7666,1.68457 12.26855,-0.85644 3.50293,-2.54004 0.71192,-3.10743 7.01563,-5.08497 6.30273,-1.9746 14.03027,-0.85546 18.58301,-2.833 4.55273,-1.97657 19.98535,-10.59766 19.98535,-10.59766 0,0 -27.7002,32.08887 -27.35156,48.48535 l -44.88086,10.46875 43.48046,32.51367 -1.0498,26.80176 v 0 z"
       style="fill:#eb222c;fill-opacity:1;fill-rule:nonzero;stroke:none"
       id="path338"
       inkscape:connector-curvature="0" /><g
       id="g340"><g
         id="g342"
         clip-path="url(#clipPath346)"><path
           d="m 365.7041,231.61035 h 186.00098 v 1.40528 H 365.7041 Z"
           style="fill:#eb222c;fill-opacity:1;fill-rule:nonzero;stroke:none"
           id="path348"
           inkscape:connector-curvature="0" /><path
           d="m 365.7041,230.14746 h 186.00098 v 1.40527 H 365.7041 Z"
           style="fill:#eb222c;fill-opacity:1;fill-rule:nonzero;stroke:none"
           id="path350"
           inkscape:connector-curvature="0" /><path
           d="m 365.7041,228.68555 h 186.00098 v 1.40429 H 365.7041 Z"
           style="fill:#eb222c;fill-opacity:1;fill-rule:nonzero;stroke:none"
           id="path352"
           inkscape:connector-curvature="0" /><path
           d="m 365.7041,227.22266 h 186.00098 v 1.40429 H 365.7041 Z"
           style="fill:#eb222c;fill-opacity:1;fill-rule:nonzero;stroke:none"
           id="path354"
           inkscape:connector-curvature="0" /><path
           d="m 365.7041,225.75879 h 186.00098 v 1.40527 H 365.7041 Z"
           style="fill:#eb222c;fill-opacity:1;fill-rule:nonzero;stroke:none"
           id="path356"
           inkscape:connector-curvature="0" /><path
           d="m 365.7041,224.2959 h 186.00098 v 1.40625 H 365.7041 Z"
           style="fill:#eb222c;fill-opacity:1;fill-rule:nonzero;stroke:none"
           id="path358"
           inkscape:connector-curvature="0" /><path
           d="m 365.7041,222.83398 h 186.00098 v 1.40528 H 365.7041 Z"
           style="fill:#eb222c;fill-opacity:1;fill-rule:nonzero;stroke:none"
           id="path360"
           inkscape:connector-curvature="0" /><path
           d="m 365.7041,221.37109 h 186.00098 v 1.4043 H 365.7041 Z"
           style="fill:#eb222c;fill-opacity:1;fill-rule:nonzero;stroke:none"
           id="path362"
           inkscape:connector-curvature="0" /><path
           d="m 365.7041,219.9082 h 186.00098 v 1.4043 H 365.7041 Z"
           style="fill:#eb222c;fill-opacity:1;fill-rule:nonzero;stroke:none"
           id="path364"
           inkscape:connector-curvature="0" /><path
           d="m 365.7041,218.44531 h 186.00098 v 1.40528 H 365.7041 Z"
           style="fill:#eb222c;fill-opacity:1;fill-rule:nonzero;stroke:none"
           id="path366"
           inkscape:connector-curvature="0" /><path
           d="m 365.7041,216.98242 h 186.00098 v 1.40528 H 365.7041 Z"
           style="fill:#eb222c;fill-opacity:1;fill-rule:nonzero;stroke:none"
           id="path368"
           inkscape:connector-curvature="0" /><path
           d="m 365.7041,215.51953 h 186.00098 v 1.40625 H 365.7041 Z"
           style="fill:#eb222c;fill-opacity:1;fill-rule:nonzero;stroke:none"
           id="path370"
           inkscape:connector-curvature="0" /><path
           d="m 365.7041,214.05664 h 186.00098 v 1.40625 H 365.7041 Z"
           style="fill:#eb222c;fill-opacity:1;fill-rule:nonzero;stroke:none"
           id="path372"
           inkscape:connector-curvature="0" /><path
           d="M 365.7041,212.59473 H 551.70508 V 214 H 365.7041 Z"
           style="fill:#eb222c;fill-opacity:1;fill-rule:nonzero;stroke:none"
           id="path374"
           inkscape:connector-curvature="0" /><path
           d="m 365.7041,211.13086 h 186.00098 v 1.40527 H 365.7041 Z"
           style="fill:#eb222c;fill-opacity:1;fill-rule:nonzero;stroke:none"
           id="path376"
           inkscape:connector-curvature="0" /><path
           d="m 365.7041,209.66895 h 186.00098 v 1.40527 H 365.7041 Z"
           style="fill:#eb222c;fill-opacity:1;fill-rule:nonzero;stroke:none"
           id="path378"
           inkscape:connector-curvature="0" /><path
           d="m 365.7041,208.20605 h 186.00098 v 1.40528 H 365.7041 Z"
           style="fill:#eb222c;fill-opacity:1;fill-rule:nonzero;stroke:none"
           id="path380"
           inkscape:connector-curvature="0" /><path
           d="m 365.7041,206.74414 h 186.00098 v 1.4043 H 365.7041 Z"
           style="fill:#eb222c;fill-opacity:1;fill-rule:nonzero;stroke:none"
           id="path382"
           inkscape:connector-curvature="0" /><path
           d="m 365.7041,205.28125 h 186.00098 v 1.4043 H 365.7041 Z"
           style="fill:#eb222c;fill-opacity:1;fill-rule:nonzero;stroke:none"
           id="path384"
           inkscape:connector-curvature="0" /><path
           d="m 365.7041,203.81738 h 186.00098 v 1.40528 H 365.7041 Z"
           style="fill:#eb222c;fill-opacity:1;fill-rule:nonzero;stroke:none"
           id="path386"
           inkscape:connector-curvature="0" /><path
           d="m 365.7041,202.35547 h 186.00098 v 1.40527 H 365.7041 Z"
           style="fill:#eb222c;fill-opacity:1;fill-rule:nonzero;stroke:none"
           id="path388"
           inkscape:connector-curvature="0" /><path
           d="m 365.7041,200.89258 h 186.00098 v 1.4043 H 365.7041 Z"
           style="fill:#eb222c;fill-opacity:1;fill-rule:nonzero;stroke:none"
           id="path390"
           inkscape:connector-curvature="0" /><path
           d="m 365.7041,199.42969 h 186.00098 v 1.40429 H 365.7041 Z"
           style="fill:#eb222c;fill-opacity:1;fill-rule:nonzero;stroke:none"
           id="path392"
           inkscape:connector-curvature="0" /><path
           d="m 365.7041,197.9668 h 186.00098 v 1.40625 H 365.7041 Z"
           style="fill:#eb222c;fill-opacity:1;fill-rule:nonzero;stroke:none"
           id="path394"
           inkscape:connector-curvature="0" /><path
           d="m 365.7041,196.50391 h 186.00098 v 1.40429 H 365.7041 Z"
           style="fill:#eb222c;fill-opacity:1;fill-rule:nonzero;stroke:none"
           id="path396"
           inkscape:connector-curvature="0" /><path
           d="m 365.7041,195.04102 h 186.00098 v 1.40625 H 365.7041 Z"
           style="fill:#eb222c;fill-opacity:1;fill-rule:nonzero;stroke:none"
           id="path398"
           inkscape:connector-curvature="0" /><path
           d="m 365.7041,193.5791 h 186.00098 v 1.4043 H 365.7041 Z"
           style="fill:#eb222c;fill-opacity:1;fill-rule:nonzero;stroke:none"
           id="path400"
           inkscape:connector-curvature="0" /><path
           d="m 365.7041,192.11621 h 186.00098 v 1.40332 H 365.7041 Z"
           style="fill:#eb222c;fill-opacity:1;fill-rule:nonzero;stroke:none"
           id="path402"
           inkscape:connector-curvature="0" /><path
           d="m 365.7041,190.65234 h 186.00098 v 1.40625 H 365.7041 Z"
           style="fill:#eb222c;fill-opacity:1;fill-rule:nonzero;stroke:none"
           id="path404"
           inkscape:connector-curvature="0" /><path
           d="m 365.7041,189.19141 h 186.00098 v 1.40429 H 365.7041 Z"
           style="fill:#eb222c;fill-opacity:1;fill-rule:nonzero;stroke:none"
           id="path406"
           inkscape:connector-curvature="0" /><path
           d="m 365.7041,187.72852 h 186.00098 v 1.40429 H 365.7041 Z"
           style="fill:#eb222c;fill-opacity:1;fill-rule:nonzero;stroke:none"
           id="path408"
           inkscape:connector-curvature="0" /><path
           d="m 365.7041,186.26465 h 186.00098 v 1.40527 H 365.7041 Z"
           style="fill:#eb222c;fill-opacity:1;fill-rule:nonzero;stroke:none"
           id="path410"
           inkscape:connector-curvature="0" /><path
           d="m 365.7041,184.80273 h 186.00098 v 1.4043 H 365.7041 Z"
           style="fill:#eb222c;fill-opacity:1;fill-rule:nonzero;stroke:none"
           id="path412"
           inkscape:connector-curvature="0" /><path
           d="m 365.7041,183.33887 h 186.00098 v 1.40625 H 365.7041 Z"
           style="fill:#eb222c;fill-opacity:1;fill-rule:nonzero;stroke:none"
           id="path414"
           inkscape:connector-curvature="0" /><path
           d="m 365.7041,181.87695 h 186.00098 v 1.40528 H 365.7041 Z"
           style="fill:#eb222c;fill-opacity:1;fill-rule:nonzero;stroke:none"
           id="path416"
           inkscape:connector-curvature="0" /><path
           d="m 365.7041,180.41406 h 186.00098 v 1.4043 H 365.7041 Z"
           style="fill:#eb222c;fill-opacity:1;fill-rule:nonzero;stroke:none"
           id="path418"
           inkscape:connector-curvature="0" /><path
           d="m 365.7041,178.95215 h 186.00098 v 1.40332 H 365.7041 Z"
           style="fill:#eb222c;fill-opacity:1;fill-rule:nonzero;stroke:none"
           id="path420"
           inkscape:connector-curvature="0" /><path
           d="m 365.7041,177.48828 h 186.00098 v 1.40527 H 365.7041 Z"
           style="fill:#eb222c;fill-opacity:1;fill-rule:nonzero;stroke:none"
           id="path422"
           inkscape:connector-curvature="0" /><path
           d="m 365.7041,176.02539 h 186.00098 v 1.40527 H 365.7041 Z"
           style="fill:#eb222c;fill-opacity:1;fill-rule:nonzero;stroke:none"
           id="path424"
           inkscape:connector-curvature="0" /><path
           d="m 365.7041,174.56348 h 186.00098 v 1.40332 H 365.7041 Z"
           style="fill:#eb222c;fill-opacity:1;fill-rule:nonzero;stroke:none"
           id="path426"
           inkscape:connector-curvature="0" /><path
           d="m 365.7041,173.09961 h 186.00098 v 1.40527 H 365.7041 Z"
           style="fill:#eb222c;fill-opacity:1;fill-rule:nonzero;stroke:none"
           id="path428"
           inkscape:connector-curvature="0" /><path
           d="m 365.7041,171.63672 h 186.00098 v 1.40527 H 365.7041 Z"
           style="fill:#eb222c;fill-opacity:1;fill-rule:nonzero;stroke:none"
           id="path430"
           inkscape:connector-curvature="0" /><path
           d="m 365.7041,170.17383 h 186.00098 v 1.40625 H 365.7041 Z"
           style="fill:#eb222c;fill-opacity:1;fill-rule:nonzero;stroke:none"
           id="path432"
           inkscape:connector-curvature="0" /><path
           d="m 365.7041,168.71289 h 186.00098 v 1.40332 H 365.7041 Z"
           style="fill:#eb222c;fill-opacity:1;fill-rule:nonzero;stroke:none"
           id="path434"
           inkscape:connector-curvature="0" /><path
           d="m 365.7041,167.24902 h 186.00098 v 1.40528 H 365.7041 Z"
           style="fill:#eb222c;fill-opacity:1;fill-rule:nonzero;stroke:none"
           id="path436"
           inkscape:connector-curvature="0" /><path
           d="m 365.7041,165.78613 h 186.00098 v 1.40528 H 365.7041 Z"
           style="fill:#eb222c;fill-opacity:1;fill-rule:nonzero;stroke:none"
           id="path438"
           inkscape:connector-curvature="0" /><path
           d="m 365.7041,164.32324 h 186.00098 v 1.40625 H 365.7041 Z"
           style="fill:#eb222c;fill-opacity:1;fill-rule:nonzero;stroke:none"
           id="path440"
           inkscape:connector-curvature="0" /><path
           d="m 365.7041,162.86133 h 186.00098 v 1.4043 H 365.7041 Z"
           style="fill:#eb222c;fill-opacity:1;fill-rule:nonzero;stroke:none"
           id="path442"
           inkscape:connector-curvature="0" /><path
           d="m 365.7041,161.39941 h 186.00098 v 1.40332 H 365.7041 Z"
           style="fill:#eb222c;fill-opacity:1;fill-rule:nonzero;stroke:none"
           id="path444"
           inkscape:connector-curvature="0" /><path
           d="m 365.7041,159.93359 h 186.00098 v 1.40625 H 365.7041 Z"
           style="fill:#eb222c;fill-opacity:1;fill-rule:nonzero;stroke:none"
           id="path446"
           inkscape:connector-curvature="0" /><path
           d="m 365.7041,158.47363 h 186.00098 v 1.4043 H 365.7041 Z"
           style="fill:#eb222c;fill-opacity:1;fill-rule:nonzero;stroke:none"
           id="path448"
           inkscape:connector-curvature="0" /><path
           d="m 365.7041,157.01074 h 186.00098 v 1.4043 H 365.7041 Z"
           style="fill:#eb222c;fill-opacity:1;fill-rule:nonzero;stroke:none"
           id="path450"
           inkscape:connector-curvature="0" /><path
           d="m 365.7041,155.5459 h 186.00098 v 1.4082 H 365.7041 Z"
           style="fill:#eb222c;fill-opacity:1;fill-rule:nonzero;stroke:none"
           id="path452"
           inkscape:connector-curvature="0" /><path
           d="m 365.7041,154.08301 h 186.00098 v 1.40625 H 365.7041 Z"
           style="fill:#eb222c;fill-opacity:1;fill-rule:nonzero;stroke:none"
           id="path454"
           inkscape:connector-curvature="0" /><path
           d="m 365.7041,152.62305 h 186.00098 v 1.40234 H 365.7041 Z"
           style="fill:#eb222c;fill-opacity:1;fill-rule:nonzero;stroke:none"
           id="path456"
           inkscape:connector-curvature="0" /><path
           d="m 365.7041,151.16016 h 186.00098 v 1.40527 H 365.7041 Z"
           style="fill:#eb222c;fill-opacity:1;fill-rule:nonzero;stroke:none"
           id="path458"
           inkscape:connector-curvature="0" /><path
           d="m 365.7041,149.69531 h 186.00098 v 1.40528 H 365.7041 Z"
           style="fill:#eb222c;fill-opacity:1;fill-rule:nonzero;stroke:none"
           id="path460"
           inkscape:connector-curvature="0" /><path
           d="m 365.7041,148.23438 h 186.00098 v 1.40429 H 365.7041 Z"
           style="fill:#eb222c;fill-opacity:1;fill-rule:nonzero;stroke:none"
           id="path462"
           inkscape:connector-curvature="0" /><path
           d="m 365.7041,146.77051 h 186.00098 v 1.40429 H 365.7041 Z"
           style="fill:#eb222c;fill-opacity:1;fill-rule:nonzero;stroke:none"
           id="path464"
           inkscape:connector-curvature="0" /><path
           d="m 365.7041,145.30664 h 186.00098 v 1.4082 H 365.7041 Z"
           style="fill:#eb222c;fill-opacity:1;fill-rule:nonzero;stroke:none"
           id="path466"
           inkscape:connector-curvature="0" /><path
           d="M 365.7041,143.84668 H 551.70508 V 145.25 H 365.7041 Z"
           style="fill:#eb222c;fill-opacity:1;fill-rule:nonzero;stroke:none"
           id="path468"
           inkscape:connector-curvature="0" /><path
           d="m 365.7041,142.38184 h 186.00098 v 1.40429 H 365.7041 Z"
           style="fill:#eb222c;fill-opacity:1;fill-rule:nonzero;stroke:none"
           id="path470"
           inkscape:connector-curvature="0" /><path
           d="m 365.7041,140.91797 h 186.00098 v 1.40723 H 365.7041 Z"
           style="fill:#eb222c;fill-opacity:1;fill-rule:nonzero;stroke:none"
           id="path472"
           inkscape:connector-curvature="0" /><path
           d="m 365.7041,139.45703 h 186.00098 v 1.4043 H 365.7041 Z"
           style="fill:#eb222c;fill-opacity:1;fill-rule:nonzero;stroke:none"
           id="path474"
           inkscape:connector-curvature="0" /><path
           d="m 365.7041,137.99414 h 186.00098 v 1.40332 H 365.7041 Z"
           style="fill:#eb222c;fill-opacity:1;fill-rule:nonzero;stroke:none"
           id="path476"
           inkscape:connector-curvature="0" /><path
           d="m 365.7041,136.53125 h 186.00098 v 1.40625 H 365.7041 Z"
           style="fill:#eb222c;fill-opacity:1;fill-rule:nonzero;stroke:none"
           id="path478"
           inkscape:connector-curvature="0" /><path
           d="m 365.7041,135.06836 h 186.00098 v 1.4043 H 365.7041 Z"
           style="fill:#eb222c;fill-opacity:1;fill-rule:nonzero;stroke:none"
           id="path480"
           inkscape:connector-curvature="0" /><path
           d="m 365.7041,133.60742 h 186.00098 v 1.40332 H 365.7041 Z"
           style="fill:#eb222c;fill-opacity:1;fill-rule:nonzero;stroke:none"
           id="path482"
           inkscape:connector-curvature="0" /><path
           d="m 365.7041,132.1416 h 186.00098 v 1.40625 H 365.7041 Z"
           style="fill:#eb222c;fill-opacity:1;fill-rule:nonzero;stroke:none"
           id="path484"
           inkscape:connector-curvature="0" /><path
           d="m 365.7041,130.67969 h 186.00098 v 1.40625 H 365.7041 Z"
           style="fill:#eb222c;fill-opacity:1;fill-rule:nonzero;stroke:none"
           id="path486"
           inkscape:connector-curvature="0" /><path
           d="m 365.7041,129.21875 h 186.00098 v 1.4043 H 365.7041 Z"
           style="fill:#eb222c;fill-opacity:1;fill-rule:nonzero;stroke:none"
           id="path488"
           inkscape:connector-curvature="0" /><path
           d="m 365.7041,127.75391 h 186.00098 v 1.4082 H 365.7041 Z"
           style="fill:#eb222c;fill-opacity:1;fill-rule:nonzero;stroke:none"
           id="path490"
           inkscape:connector-curvature="0" /><path
           d="m 365.7041,126.29199 h 186.00098 v 1.4043 H 365.7041 Z"
           style="fill:#eb222c;fill-opacity:1;fill-rule:nonzero;stroke:none"
           id="path492"
           inkscape:connector-curvature="0" /><path
           d="m 365.7041,124.83105 h 186.00098 v 1.40235 H 365.7041 Z"
           style="fill:#eb222c;fill-opacity:1;fill-rule:nonzero;stroke:none"
           id="path494"
           inkscape:connector-curvature="0" /><path
           d="m 365.7041,123.36719 h 186.00098 v 1.40136 H 365.7041 Z"
           style="fill:#eb222c;fill-opacity:1;fill-rule:nonzero;stroke:none"
           id="path496"
           inkscape:connector-curvature="0" /><path
           d="m 365.7041,121.90332 h 186.00098 v 1.40527 H 365.7041 Z"
           style="fill:#eb222c;fill-opacity:1;fill-rule:nonzero;stroke:none"
           id="path498"
           inkscape:connector-curvature="0" /><path
           d="m 365.7041,120.44238 h 186.00098 v 1.4043 H 365.7041 Z"
           style="fill:#eb222c;fill-opacity:1;fill-rule:nonzero;stroke:none"
           id="path500"
           inkscape:connector-curvature="0" /><path
           d="m 365.7041,118.97852 h 186.00098 v 1.40332 H 365.7041 Z"
           style="fill:#eb222c;fill-opacity:1;fill-rule:nonzero;stroke:none"
           id="path502"
           inkscape:connector-curvature="0" /><path
           d="m 365.7041,117.51367 h 186.00098 v 1.40918 H 365.7041 Z"
           style="fill:#eb222c;fill-opacity:1;fill-rule:nonzero;stroke:none"
           id="path504"
           inkscape:connector-curvature="0" /><path
           d="m 365.7041,116.05469 h 186.00098 v 1.40332 H 365.7041 Z"
           style="fill:#eb222c;fill-opacity:1;fill-rule:nonzero;stroke:none"
           id="path506"
           inkscape:connector-curvature="0" /><path
           d="m 365.7041,114.58984 h 186.00098 v 1.4043 H 365.7041 Z"
           style="fill:#eb222c;fill-opacity:1;fill-rule:nonzero;stroke:none"
           id="path508"
           inkscape:connector-curvature="0" /><path
           d="m 365.7041,113.12598 h 186.00098 v 1.40722 H 365.7041 Z"
           style="fill:#eb222c;fill-opacity:1;fill-rule:nonzero;stroke:none"
           id="path510"
           inkscape:connector-curvature="0" /><path
           d="m 365.7041,111.66406 h 186.00098 v 1.40528 H 365.7041 Z"
           style="fill:#eb222c;fill-opacity:1;fill-rule:nonzero;stroke:none"
           id="path512"
           inkscape:connector-curvature="0" /></g></g><path
       d="m 521.71875,230.29785 c 0,0 -8.7793,0.91113 -14.38086,1.19238 -5.60254,0.28418 -17.88184,-1.1289 -20.33398,-0.8457 -2.45215,0.28125 -6.6543,2.54102 -11.91895,1.97656 -5.26367,-0.56445 -11.92969,-0.55468 -16.48144,-2.25976 -4.55372,-1.70313 -13.33106,-2.55078 -15.43262,-1.70313 -2.10059,0.84668 -11.20606,3.40821 -15.77051,2.26758 -4.56348,-1.13867 -11.56641,-1.97558 -18.23242,-7.35058 0,0 17.72266,1.458 19.9834,-1.4209 5.49023,-6.9961 -10.5293,-6.4961 -14.38086,-5.36621 -3.85156,1.12988 -10.16602,4.52734 -12.26758,6.22168 0,0 5.26367,-12.44532 16.83105,-13.57422 11.56836,-1.12891 14.72168,-1.1377 11.56836,-3.96289 -3.14941,-2.82227 -14.71875,-3.95313 -14.71875,-3.95313 0,0 -26.69433,0.54688 -28.09668,-0.0186 -1.40136,-0.56446 29.14161,-4.21973 33.35743,-5.35059 4.21484,-1.12988 15.42285,1.12402 18.22363,1.9707 2.80273,0.84766 6.66699,1.41211 9.81738,0 3.15332,-1.41113 4.91602,-1.1289 8.76758,0 3.85156,1.12989 7.01465,2.25977 6.66602,-0.28222 -0.35157,-2.54199 -8.07911,-5.36621 -11.57911,-5.36621 -3.50195,0 -15.78125,-0.29102 -21.03515,-3.96192 0,0 8.41504,2.25977 8.76562,0.56348 0.35157,-1.69336 -5.53027,-5.40332 -8.33105,-5.69531 -2.80176,-0.29102 -17.79102,2.9248 -23.05567,-3.57813 0,0 11.05274,1.64063 13.15332,0.22852 2.10254,-1.41211 3.86426,-3.9541 6.66504,-3.38867 2.80274,0.56347 4.90235,0.83789 4.20118,-1.42188 -0.69922,-2.25977 -4.88868,-5.36523 -7.70118,-5.64844 -2.81445,-0.28222 -11.71972,-0.47265 -16.79394,-3.88672 0,0 12.1875,0.11133 13.58887,-2.43164 1.40136,-2.53906 -2.42383,-5.84375 -9.07715,-4.71191 -6.65332,1.12988 -11.22852,2.27246 -20.69532,-0.55078 -9.46679,-2.82617 -27.31445,7.05469 -27.31445,7.05469 0,0 18.89942,-14.40528 25.56348,-13.84278 6.66699,0.56543 10.56347,2.28125 13.71484,1.14453 3.15137,-1.14062 3.46777,-1.72558 9.08203,-1.1582 5.61524,0.56348 9.81641,2.82422 9.11719,-1.12891 -0.7002,-3.9541 -12.95801,-4.2373 -15.07129,-3.39062 0,0 10.85742,-5.65723 15.07129,-4.80762 4.21289,0.84375 16.84473,4.2334 21.39648,1.97363 4.55274,-2.25781 15.08106,-1.97363 19.63282,-1.97363 4.55273,0 13.66894,-1.9873 15.77148,-4.24609 2.10059,-2.26172 11.58008,-7.06153 13.67969,-6.21387 2.10254,0.84766 8.7666,1.68457 12.26855,-0.85644 3.50293,-2.54004 0.71192,-3.10743 7.01563,-5.08497 6.30273,-1.9746 14.03027,-0.85546 18.58301,-2.833 4.55273,-1.97657 19.98535,-10.59766 19.98535,-10.59766 0,0 -27.7002,32.08887 -27.35156,48.48535 l -44.88086,10.46875 43.48046,32.51367 -1.0498,26.80176 v 0 z"
       style="fill:none;stroke:#ffffff;stroke-width:0.98009002;stroke-linecap:butt;stroke-linejoin:round;stroke-miterlimit:3.8636899;stroke-dasharray:none;stroke-opacity:1"
       id="path514"
       inkscape:connector-curvature="0" /><text
       transform="matrix(1,0,0,-1,206.48828,91.89844)"
       style="font-variant:normal;font-weight:900;font-size:32.66999817px;font-family:Arial;-inkscape-font-specification:Arial-Black;writing-mode:lr-tb;fill:#231f20;fill-opacity:1;fill-rule:nonzero;stroke:none"
       id="text518"><tspan
         x="0 30.840481 57.204517 79.681152 106.89526 131.71695 157.1342 180.57852 205.99579 227.78668"
         y="0"
         sodipodi:role="line"
         id="tspan516">MOTORCYCLE</tspan></text>
<text
       transform="matrix(1,0,0,-1,166.98877,56.39844)"
       style="font-variant:normal;font-weight:900;font-size:32.66999817px;font-family:Arial;-inkscape-font-specification:Arial-Black;writing-mode:lr-tb;fill:#231f20;fill-opacity:1;fill-rule:nonzero;stroke:none"
       id="text522"><tspan
         x="0 23.58774 49.005001 70.795891 94.383629 117.97137 128.85048 157.8941 168.77322 192.36096 215.9487 240.86186 266.27911 278.98776 304.405"
         y="0"
         sodipodi:role="line"
         id="tspan520">SALES &amp; SERVICE</tspan></text>
<text
       transform="matrix(1,0,0,-1,223.32129,19.73242)"
       style="font-variant:normal;font-weight:900;font-size:32.66999817px;font-family:Arial;-inkscape-font-specification:Arial-Black;writing-mode:lr-tb;fill:#231f20;fill-opacity:1;fill-rule:nonzero;stroke:none"
       id="text526"><tspan
         x="0 24.295046 51.509155 76.075691 103.28979 128.70706 155.92117 166.80028 177.67938 190.38802"
         y="0"
         sodipodi:role="line"
         id="tspan524">AUBURN, IN</tspan></text>
</g></svg>